<svg xmlns="http://www.w3.org/2000/svg" width="26.739" height="27" viewBox="0 0 26.739 27"><path d="M26.1,5.123a2.624,2.624,0,0,0-2.009-.887h-6V.791A.791.791,0,0,0,17.3,0H13.064a.791.791,0,0,0-.791.791V4.236h-7.4L4.68,2.786C4.472,1.224,3.384,0,2.2,0H.792a.791.791,0,1,0,0,1.582H2.2c.254,0,.791.537.908,1.413L5.376,19.978a3.2,3.2,0,0,0,1.083,1.973,3.269,3.269,0,0,0,1.518.755,2.91,2.91,0,1,0,5.146.057h4.145a2.909,2.909,0,1,0,5.175,0h2.073a.791.791,0,0,0,0-1.582H8.559a1.7,1.7,0,0,1-1.614-1.413l-.165-1.241H22.4a3.284,3.284,0,0,0,3.182-2.786l1.134-8.51A2.624,2.624,0,0,0,26.1,5.123ZM11.863,24.091a1.327,1.327,0,1,1-1.327-1.327A1.329,1.329,0,0,1,11.863,24.091Zm9.32,0a1.327,1.327,0,1,1-1.327-1.327A1.329,1.329,0,0,1,21.183,24.091ZM13.855,1.582h2.654V5.018s0,.006,0,.009,0,.006,0,.009V9.264a.791.791,0,0,0,.791.791h.279l-2.35,2.331-2.35-2.331h.184a.791.791,0,0,0,.791-.791Zm11.291,5.44-1.134,8.51A1.7,1.7,0,0,1,22.4,16.945H6.568L5.085,5.818h7.189V8.473H10.959A.791.791,0,0,0,10.4,9.825l4.27,4.236a.791.791,0,0,0,1.114,0l4.27-4.236A.791.791,0,0,0,19.5,8.473H18.091V5.818h6a1.02,1.02,0,0,1,1.054,1.2Zm0,0" transform="translate(-0.001)"/></svg>