<svg xmlns="http://www.w3.org/2000/svg" width="272" height="150" viewBox="0 0 272 150">
  <g id="bg1" transform="translate(-23 -522)" opacity="0.15">
    <rect id="Rectangle_1025" data-name="Rectangle 1025" width="272" height="150" transform="translate(23 522)" fill="none"/>
    <g id="Group_1860" data-name="Group 1860" transform="translate(33 532.002)">
      <g id="Layer_2" data-name="Layer 2" transform="translate(0 0)">
        <g id="Layer_1" data-name="Layer 1">
          <path id="Path_492" data-name="Path 492" d="M73.211,11.173l-8.9-1.9,2.3,4.005L31.334,33.761l-13.8-6.123L0,37.213,1.473,39.9l16.2-8.839,13.841,6.153L68.131,15.93l2.256,3.9Z" transform="translate(0 5.1)" fill="#fff"/>
          <path id="Path_493" data-name="Path 493" d="M14.51,18.913a12.706,12.706,0,0,1,.184-2.133,12.429,12.429,0,0,1,1.136,5.2h0a12.429,12.429,0,0,0-1.136-5.2,12.691,12.691,0,0,0-.184,2.133Z" transform="translate(7.755 9.114)" fill="#fff"/>
          <path id="Path_494" data-name="Path 494" d="M21.83,25.8a11.309,11.309,0,0,0-5.57-5.632,7.672,7.672,0,1,0-8.409,0A11.785,11.785,0,0,0,1.161,31v6.522l15.821-9.084,5.141,2.3h0l8.44,3.606,11.493-6.506.951-.629,18.061-10.22A10.956,10.956,0,0,0,57.154,14a7.672,7.672,0,1,0-8.394,0,11.616,11.616,0,0,0-6.414,8.854,10.082,10.082,0,0,0-5.463-5.8,7.672,7.672,0,1,0-8.486,0,11.616,11.616,0,0,0-6.506,8.7" transform="translate(0.619 0.094)" fill="#fff"/>
          <path id="Path_495" data-name="Path 495" d="M14.63,16.79" transform="translate(7.82 9.119)" fill="#fff"/>
        </g>
      </g>
    </g>
    <g id="Group_1862" data-name="Group 1862" transform="translate(210.857 588.925)">
      <g id="Group_1861" data-name="Group 1861" transform="translate(0 0)">
        <path id="Path_496" data-name="Path 496" d="M57.461,41.036a16.434,16.434,0,0,0-12.433,5.7l-6.387-6.5V33.964a16.539,16.539,0,1,0-2.281,0v6.273l-6.388,6.388a16.964,16.964,0,1,0,1.369,1.825L37.5,42.291l6.159,6.159a16.544,16.544,0,1,0,13.8-7.414ZM31.8,57.461a14.206,14.206,0,0,1-3.65,9.467A11.107,11.107,0,0,0,17.539,59.4,11.486,11.486,0,0,0,6.931,66.928,14.241,14.241,0,1,1,31.8,57.461ZM26.9,27.006a13.869,13.869,0,0,1-3.65-9.467,14.258,14.258,0,1,1,24.866,9.467A11.107,11.107,0,0,0,37.5,19.478a11.326,11.326,0,0,0-10.608,7.528ZM68.069,67.042a11.107,11.107,0,0,0-10.608-7.528,11.486,11.486,0,0,0-10.608,7.528,14.429,14.429,0,0,1-3.65-9.467,14.258,14.258,0,1,1,28.516-.114A14.724,14.724,0,0,1,68.069,67.042Z" transform="translate(-0.152 -0.925)" fill="#fff"/>
        <path id="Path_497" data-name="Path 497" d="M23,46.7a6.5,6.5,0,1,1-6.5-6.5A6.5,6.5,0,0,1,23,46.7Z" transform="translate(1.114 4.588)" fill="#fff"/>
        <path id="Path_498" data-name="Path 498" d="M40.5,11.6A6.5,6.5,0,1,1,34,5.1a6.572,6.572,0,0,1,6.5,6.5Z" transform="translate(3.575 -0.348)" fill="#fff"/>
        <path id="Path_499" data-name="Path 499" d="M58.1,46.7a6.5,6.5,0,1,1-6.5-6.5A6.573,6.573,0,0,1,58.1,46.7Z" transform="translate(6.05 4.588)" fill="#fff"/>
      </g>
    </g>
  </g>
</svg>
