<svg xmlns="http://www.w3.org/2000/svg" width="272" height="150" viewBox="0 0 272 150">
  <g id="bg2" transform="translate(-277 -522)" opacity="0.15">
    <rect id="Rectangle_1026" data-name="Rectangle 1026" width="272" height="150" transform="translate(277 522)" fill="none"/>
    <g id="Group_1859" data-name="Group 1859" transform="translate(287.38 601.075)">
      <g id="Group_1858" data-name="Group 1858" transform="translate(0 0)">
        <path id="Path_490" data-name="Path 490" d="M51.3,39.615,52.752,35.7a1.268,1.268,0,0,0-1.2-1.7H24.045a8.508,8.508,0,0,0-8.518,7.7L14.391,52.17a2.055,2.055,0,0,0,1.577,2.208c1.136.252,2.65.442,4.164.631l.946,16.656a2.631,2.631,0,0,0,2.65,2.461H31.8a2.675,2.675,0,0,0,2.65-2.461l1.388-28.58A2.6,2.6,0,0,1,38.43,40.5H50.1A1.382,1.382,0,0,0,51.3,39.615Z" transform="translate(-14.38 -14.126)" fill="#fff"/>
        <circle id="Ellipse_13" data-name="Ellipse 13" cx="8.77" cy="8.77" r="8.77" transform="translate(4.681 0)" fill="#fff"/>
        <path id="Path_491" data-name="Path 491" d="M73.508,60.042a1.653,1.653,0,0,0-.946-2.9l-3.912-.315a1.675,1.675,0,0,1-1.388-1.009l-1.514-3.6a1.651,1.651,0,0,0-3.028,0l-1.514,3.6a1.675,1.675,0,0,1-1.388,1.009L55.9,57.14a1.653,1.653,0,0,0-.946,2.9l2.965,2.524a1.576,1.576,0,0,1,.5,1.64l-.883,3.785A1.636,1.636,0,0,0,60,69.756l3.344-2.019a1.652,1.652,0,0,1,1.7,0L68.4,69.758a1.648,1.648,0,0,0,2.461-1.767l-.883-3.785a1.706,1.706,0,0,1,.5-1.64Z" transform="translate(-29.141 -20.484)" fill="#fff"/>
      </g>
    </g>
    <g id="Group_1864" data-name="Group 1864" transform="translate(470.166 531.999)">
      <g id="Group_1863" data-name="Group 1863" transform="translate(0 0)">
        <path id="Path_500" data-name="Path 500" d="M83.846,19.158l-3.913-.435A10.727,10.727,0,0,0,78.7,15.752l2.464-3.116a1.2,1.2,0,0,0-.072-1.522L78.846,8.868A1.117,1.117,0,0,0,77.325,8.8l-3.043,2.464a15.129,15.129,0,0,0-2.971-1.232l-.435-3.913A1.1,1.1,0,0,0,69.788,5.1H66.6a1.053,1.053,0,0,0-1.087,1.014L65.151,10.1a15.129,15.129,0,0,0-2.971,1.232L59.136,8.868a1.2,1.2,0,0,0-1.522.072l-2.246,2.246a1.117,1.117,0,0,0-.072,1.522l2.464,3.116A13.5,13.5,0,0,0,56.528,18.8l-3.913.362A1.1,1.1,0,0,0,51.6,20.245v3.188a1.053,1.053,0,0,0,1.014,1.087l3.913.435a13.5,13.5,0,0,0,1.232,2.971L55.3,30.97a1.121,1.121,0,0,0,.072,1.522l2.246,2.246a1.117,1.117,0,0,0,1.522.072l3.043-2.464a11.723,11.723,0,0,0,2.971,1.232l.435,3.913A1.1,1.1,0,0,0,66.676,38.5h3.188a1.053,1.053,0,0,0,1.087-1.014l.435-3.913a11.723,11.723,0,0,0,2.971-1.232L77.4,34.81a1.121,1.121,0,0,0,1.522-.072l2.246-2.246a1.117,1.117,0,0,0,.072-1.522L78.7,27.926a13.5,13.5,0,0,0,1.232-2.971l3.913-.435a1.1,1.1,0,0,0,1.014-1.087V20.245A1.1,1.1,0,0,0,83.846,19.158Zm-15.58,8.478a5.8,5.8,0,1,1,5.8-5.8,5.8,5.8,0,0,1-5.8,5.8Z" transform="translate(-15.994 -5.099)" fill="#fff"/>
        <path id="Path_501" data-name="Path 501" d="M46.116,57.377l-4.928-.507a14.7,14.7,0,0,0-1.449-3.478l3.116-3.841a1,1,0,0,0-.072-1.3L39.667,45.2a.9.9,0,0,0-1.232-.072l-3.841,3.116A14.7,14.7,0,0,0,31.116,46.8l-.507-4.928a.946.946,0,0,0-.942-.87H25.319a.946.946,0,0,0-.942.87L23.87,46.8a14.7,14.7,0,0,0-3.478,1.449L16.551,45.13a.9.9,0,0,0-1.232.072L12.2,48.246a.991.991,0,0,0-.072,1.3l3.116,3.841A14.7,14.7,0,0,0,13.8,56.87l-4.928.507a.9.9,0,0,0-.87.942v4.348a.946.946,0,0,0,.87.942l4.928.507a14.7,14.7,0,0,0,1.449,3.478l-3.188,3.841a1,1,0,0,0,.072,1.3l3.116,3.043a.991.991,0,0,0,1.3.072l3.841-3.116a14.7,14.7,0,0,0,3.478,1.449l.507,4.928a.946.946,0,0,0,.942.87h4.348a.946.946,0,0,0,.942-.87l.507-4.928a14.7,14.7,0,0,0,3.478-1.449l3.841,3.116a1,1,0,0,0,1.3-.072l3.116-3.116a.991.991,0,0,0,.072-1.3L39.8,67.521a14.7,14.7,0,0,0,1.449-3.478l4.928-.507a.946.946,0,0,0,.87-.942V58.246a1.007,1.007,0,0,0-.936-.869ZM27.493,67.232a6.8,6.8,0,1,1,4.817-1.993,6.775,6.775,0,0,1-4.817,1.993Z" transform="translate(-3.988 -14.985)" fill="#fff"/>
        <path id="Path_502" data-name="Path 502" d="M21.545,26.036v2.609a1.007,1.007,0,0,0,1.594.87l10.072-6.232a1.083,1.083,0,0,0,0-1.812L23.139,15.239a1.037,1.037,0,0,0-1.594.87V18.79c-4.348.507-15.29,3.478-19.058,20a.988.988,0,0,0,1.884.58C7.994,31.4,14.009,26.689,21.545,26.036Z" transform="translate(-2.461 -7.847)" fill="#fff"/>
      </g>
    </g>
  </g>
</svg>
