<svg xmlns="http://www.w3.org/2000/svg" width="272" height="150" viewBox="0 0 272 150">
  <g id="bg3" transform="translate(-539 -522)" opacity="0.15">
    <rect id="Rectangle_1027" data-name="Rectangle 1027" width="272" height="150" transform="translate(539 522)" fill="none"/>
    <g id="Group_1867" data-name="Group 1867" transform="translate(548 532)">
      <g id="Group_1866" data-name="Group 1866">
        <path id="Path_503" data-name="Path 503" d="M20.619,21.823A7.116,7.116,0,0,0,19.088,20a9.484,9.484,0,0,0-1.9-1.242,11.427,11.427,0,0,0-2.056-.773,17.31,17.31,0,0,0-2-.416,16.223,16.223,0,0,0-1.724-.172q-.774-.029-1.247-.03v5.4L0,15.388,10.164,8.031V12.8a13.735,13.735,0,0,1,3.3.515,11.053,11.053,0,0,1,2.522,1.076,8.7,8.7,0,0,1,1.853,1.452,9.969,9.969,0,0,1,1.276,1.628,10.744,10.744,0,0,1,1.5,4.352Z" transform="translate(0 -8.03)" fill="#fff"/>
        <path id="Path_504" data-name="Path 504" d="M34.383,21.824A7.094,7.094,0,0,1,35.915,20a9.484,9.484,0,0,1,1.9-1.242,11.4,11.4,0,0,1,2.057-.773,17.252,17.252,0,0,1,2-.416A16.2,16.2,0,0,1,43.6,17.4q.776-.029,1.248-.03v5.4L55,15.387,44.84,8.03V12.8a13.724,13.724,0,0,0-3.3.515,11.053,11.053,0,0,0-2.522,1.076,8.7,8.7,0,0,0-1.853,1.452,9.888,9.888,0,0,0-1.275,1.628,10.684,10.684,0,0,0-1.507,4.353Z" transform="translate(9.995 -8.03)" fill="#fff"/>
        <g id="Group_1865" data-name="Group 1865" transform="translate(25.643 7.304)">
          <path id="Path_505" data-name="Path 505" d="M26.9,27.767a7.039,7.039,0,1,1,7.045-7.033A7.039,7.039,0,0,1,26.9,27.767Z" transform="translate(-19.867 -13.689)" fill="#fff"/>
        </g>
        <path id="Path_506" data-name="Path 506" d="M44.376,48.291V37.234l4.062,11.057H55.19A54.36,54.36,0,0,0,47.076,28.86c-3.3-4.537-9.413-5.729-13.191-3.28-.456.115-11.325,10.031-11.325,10.031L25.433,29.3a3.39,3.39,0,1,0-6.18-2.787l-7.27,16.131a4.029,4.029,0,0,0,1.3,4.822,4.34,4.34,0,0,0,5.008-.547l8.334-6.682a78.05,78.05,0,0,0-2.1,8.05h19.85Z" transform="translate(3.392 -3.291)" fill="#fff"/>
      </g>
    </g>
    <g id="Group_1869" data-name="Group 1869" transform="translate(756.705 602)">
      <g id="Group_1868" data-name="Group 1868">
        <path id="Path_507" data-name="Path 507" d="M36.544,6.5a5.275,5.275,0,0,0-5.263,5.263v1.4a1.053,1.053,0,1,0,2.1,0v-1.4a3.158,3.158,0,0,1,6.316,0V23.035A7.958,7.958,0,0,1,33.737,25.8a9.462,9.462,0,0,1-7.018-3.509l5.329,15.088H49.461L54.79,22.291A9.462,9.462,0,0,1,47.772,25.8a7.958,7.958,0,0,1-5.965-2.763V11.763A5.275,5.275,0,0,0,36.544,6.5ZM19,39.482v20.7L24.614,66.5H56.9l5.614-6.316v-20.7Zm21.754,4.211a5.947,5.947,0,0,1,5.965,5.9,5.541,5.541,0,0,1-1.689,4.1,16.96,16.96,0,0,1-2.719,1.974,1.21,1.21,0,0,0-.4.373,1.244,1.244,0,0,0-.11.636,1.053,1.053,0,1,1-2.1,0,3.364,3.364,0,0,1,.373-1.667A3.251,3.251,0,0,1,41.1,53.956a16.746,16.746,0,0,0,2.5-1.8,3.483,3.483,0,0,0,1.009-2.566,3.86,3.86,0,1,0-7.719,0,1.053,1.053,0,1,1-2.1,0,5.948,5.948,0,0,1,5.964-5.9Zm0,15.789a1.4,1.4,0,1,1-1.4,1.4,1.4,1.4,0,0,1,1.4-1.4Z" transform="translate(-19 -6.5)" fill="#fff"/>
      </g>
    </g>
  </g>
</svg>
