<svg xmlns="http://www.w3.org/2000/svg" width="272" height="150" viewBox="0 0 272 150">
  <g id="bg4" transform="translate(-800 -522)" opacity="0.15">
    <rect id="Rectangle_1028" data-name="Rectangle 1028" width="272" height="150" transform="translate(800 522)" fill="none"/>
    <g id="Group_1870" data-name="Group 1870" transform="translate(809.971 606.998)">
      <circle id="Ellipse_14" data-name="Ellipse 14" cx="4.19" cy="4.19" r="4.19" transform="translate(19.395 23.968) rotate(-18.591)" fill="#fff"/>
      <path id="Path_508" data-name="Path 508" d="M54.394,30.913c-.2-1.663-.4-2.926-.6-3.99l2.66-.266v-.2c-.133-1.131-1.463-1.929-3.192-2L52.8,20.006a6.189,6.189,0,0,0,3.192-2.195,5.314,5.314,0,0,0,3.857-2.727c.133-.266.2-.466.333-.732.732-1.53,1.463-2.993.2-4.057a2.38,2.38,0,0,0-2-.6,3.564,3.564,0,0,0-.732.333,7.98,7.98,0,0,0-.2-1.33L44.617,9.964v1.33a3.432,3.432,0,0,0-.732-.133,2.4,2.4,0,0,0-1.862,1c-1,1.264-.067,2.527,1,3.924.133.2.333.466.466.665a5.2,5.2,0,0,0,4.323,1.929,5.8,5.8,0,0,0,3.525,1.53l.466,4.456c-1.663.4-2.793,1.463-2.727,2.594a.244.244,0,0,0,.067.2l3.059-.266c-.067.732-.067,1.33-.067,1.463,0,.532-.665,9.244-4.589,12.17a6.641,6.641,0,0,0-2.993-.865,13.464,13.464,0,0,0-4.788.665c-2.66-3.658-3.126-10.242-3.126-10.707,0-.532-1.264-3.791-1.862,2.86-.466,4.921,2.394,9.51,3.857,11.505a13.218,13.218,0,0,0,1.064,1.6C43.487,50.6,44.551,63.7,44.551,63.7a74.111,74.111,0,0,0,7.316-11.9c1.6-3.259.4-6.584-1.663-8.845C51.733,40.756,55.059,35.834,54.394,30.913ZM57.785,10.7a2.709,2.709,0,0,1,.732-.4h.133a1.766,1.766,0,0,1,1.264.466c.8.665.4,1.663-.4,3.259a3.565,3.565,0,0,0-.333.732,4.541,4.541,0,0,1-2.727,2.195A9.619,9.619,0,0,0,57.785,10.7ZM43.952,16.282c-.133-.2-.333-.466-.466-.665-1.064-1.4-1.663-2.261-1-3.126a1.686,1.686,0,0,1,1.131-.732h.133a1.278,1.278,0,0,1,.8.266,10.446,10.446,0,0,0,2.461,5.919A5.159,5.159,0,0,1,43.952,16.282Z" transform="translate(-19.593 -8.698)" fill="#fff"/>
      <circle id="Ellipse_15" data-name="Ellipse 15" cx="3.059" cy="3.059" r="3.059" transform="translate(39.344 35.914) rotate(-64.14)" fill="#fff"/>
      <path id="Path_509" data-name="Path 509" d="M79.757,52.879c-.067.333-1,4.988-3.259,7.382a9.751,9.751,0,0,0-3.325-.931,5.2,5.2,0,0,0-2.2.333c-2.527-2.394-2.195-8.779-2.195-9.111.067-.333.732-8.513-1.929,1.463-.931,3.458,1,7.316,2,8.978a5.7,5.7,0,0,0-2,6.185,54.567,54.567,0,0,0,4.19,9.178s1.929-9.244,5.121-12.3a11.785,11.785,0,0,0,.931-1.064c1.264-1.264,3.724-4.323,3.791-7.848C81.02,50.352,79.823,52.547,79.757,52.879Z" transform="translate(-30.258 -21.553)" fill="#fff"/>
      <circle id="Ellipse_16" data-name="Ellipse 16" cx="3.059" cy="3.059" r="3.059" transform="translate(3.05 33.113) rotate(-25.86)" fill="#fff"/>
      <path id="Path_510" data-name="Path 510" d="M23.96,60.993c1-1.663,2.926-5.453,2-8.978-2.66-9.976-2-1.8-1.929-1.463s.4,6.717-2.195,9.111a3.8,3.8,0,0,0-2.195-.333,8.145,8.145,0,0,0-3.325.931c-2.261-2.394-3.192-7.05-3.259-7.382-.067-.4-1.264-2.594-1.064,2.195.133,3.591,2.594,6.584,3.791,7.848a6.228,6.228,0,0,0,.931,1.064c3.192,3.059,5.121,12.3,5.121,12.3a54.566,54.566,0,0,0,4.19-9.178,5.666,5.666,0,0,0-2.066-6.115Z" transform="translate(-11.97 -21.553)" fill="#fff"/>
    </g>
    <g id="Group_1871" data-name="Group 1871" transform="translate(1016.705 532.001)">
      <path id="Path_511" data-name="Path 511" d="M40.5,30.745H29.979a3.75,3.75,0,1,0-4.459,0H15v3h9L21.75,52.494H25.5l2.25-10.5L30,52.494h3.75L31.5,33.745h9Z" transform="translate(-5.25 -7.495)" fill="#fff"/>
      <path id="Path_512" data-name="Path 512" d="M29.955,2.031a4.5,4.5,0,0,0-2.7,7.586,3.76,3.76,0,0,1,.99,2.624V12.5h4.5v-.39a3.864,3.864,0,0,1,1.079-2.587,4.5,4.5,0,0,0-3.873-7.491Z" transform="translate(-8 -1.999)" fill="#fff"/>
      <rect id="Rectangle_1029" data-name="Rectangle 1029" width="3" height="1.5" transform="translate(20.999 12)" fill="#fff"/>
      <path id="Path_513" data-name="Path 513" d="M4.082,19.379l-.693,1.459A7.532,7.532,0,0,0,5.162,22.61l1.459-.693,1.086.451L8.247,24h2.506l.54-1.631a6.094,6.094,0,0,0,1.086-.451l1.459.693a7.531,7.531,0,0,0,1.772-1.772l-.693-1.459a6.092,6.092,0,0,0,.451-1.086L17,17.752V15.247l-1.631-.54a6.089,6.089,0,0,0-.451-1.086l.693-1.459a7.533,7.533,0,0,0-1.772-1.772l-1.459.693a6.094,6.094,0,0,0-1.086-.451L10.753,9H8.247l-.54,1.631-1.086.451-1.459-.693A7.533,7.533,0,0,0,3.39,12.161l.693,1.459-.451,1.086L2,15.247v2.506l1.631.54ZM9.5,12.75A3.75,3.75,0,1,1,5.75,16.5,3.75,3.75,0,0,1,9.5,12.75Z" transform="translate(-2 -3.75)" fill="#fff"/>
      <path id="Path_514" data-name="Path 514" d="M46,23.749H58V8H46Zm8.25-13.5h1.5V21.5h-1.5Zm-3,2.25h1.5v9h-1.5Zm-3,2.25h1.5V21.5h-1.5Z" transform="translate(-13.001 -3.5)" fill="#fff"/>
      <rect id="Rectangle_1030" data-name="Rectangle 1030" width="1.5" height="1.5" transform="translate(38.249 24)" fill="#fff"/>
      <rect id="Rectangle_1031" data-name="Rectangle 1031" width="1.5" height="1.5" transform="translate(5.25 24)" fill="#fff"/>
      <rect id="Rectangle_1032" data-name="Rectangle 1032" width="1.5" height="1.5" transform="translate(41.999 40.499)" fill="#fff"/>
      <rect id="Rectangle_1033" data-name="Rectangle 1033" width="1.5" height="1.5" transform="translate(41.999 43.499)" fill="#fff"/>
      <rect id="Rectangle_1034" data-name="Rectangle 1034" width="1.5" height="1.5" transform="translate(43.498 41.999)" fill="#fff"/>
      <rect id="Rectangle_1035" data-name="Rectangle 1035" width="1.5" height="1.5" transform="translate(40.499 41.999)" fill="#fff"/>
      <rect id="Rectangle_1036" data-name="Rectangle 1036" width="1.5" height="1.5" transform="translate(1.5 40.499)" fill="#fff"/>
      <rect id="Rectangle_1037" data-name="Rectangle 1037" width="1.5" height="1.5" transform="translate(1.5 43.499)" fill="#fff"/>
      <rect id="Rectangle_1038" data-name="Rectangle 1038" width="1.5" height="1.5" transform="translate(3 41.999)" fill="#fff"/>
      <rect id="Rectangle_1039" data-name="Rectangle 1039" width="1.5" height="1.5" transform="translate(0 41.999)" fill="#fff"/>
    </g>
  </g>
</svg>
