<svg xmlns="http://www.w3.org/2000/svg" width="272" height="150" viewBox="0 0 272 150">
  <g id="bg6" transform="translate(-1061 -332)" opacity="0.15">
    <rect id="Rectangle_1041" data-name="Rectangle 1041" width="272" height="150" transform="translate(1061 332)" fill="none"/>
    <g id="Group_1879" data-name="Group 1879" transform="translate(1071.386 421.996)">
      <g id="Group_1878" data-name="Group 1878" transform="translate(0 0)">
        <g id="Group_1877" data-name="Group 1877">
          <path id="Path_526" data-name="Path 526" d="M194.938,85.7H176.327v8.694h18.611Z" transform="translate(-159.767 -79.467)" fill="#fff"/>
          <path id="Path_527" data-name="Path 527" d="M75.153,158.906h-.337L77.1,137.823l-40.023-.008c-.611-1.47-1.41-3.42-1.559-3.865a.441.441,0,0,0-.441-.43H26.828a.442.442,0,1,0,0,.884H34.75c.182.5.63,1.633,1.732,4.271.005.012.012.023.018.035l.939,4.658h9.152v.884H37.616l.551,2.734h8.424v.884H38.345l.555,2.73H46.6v.884H39.074l1.5,7.438a3.629,3.629,0,0,0,.335,7.242h4.585a3.19,3.19,0,1,0,3.528,0H63.854a3.19,3.19,0,1,0,3.528,0h6.85a.442.442,0,0,0,0-.884H40.907a2.745,2.745,0,1,1,0-5.491H75.153a.442.442,0,0,0,0-.884Z" transform="translate(-26.386 -122.006)" fill="#fff"/>
          <path id="Path_528" data-name="Path 528" d="M279.988,30.193h15.25V44.205h.884v-14.9H279.1v5.668h.884Z" transform="translate(-251.193 -29.305)" fill="#fff"/>
        </g>
      </g>
    </g>
    <g id="Group_1880" data-name="Group 1880" transform="translate(1275.111 341.997)">
      <path id="Path_529" data-name="Path 529" d="M64.565,271.359v23.077c0,.6-.01,1.2-.01,1.8l-.928-.406-5.872-2.587-7.106-3.129-6.133-2.708c-.842-.371-1.665-.777-2.517-1.133V263.2c0-.6.005-1.2.01-1.8.316.14.632.281.948.416q2.941,1.3,5.887,2.592,2.738,1.2,5.476,2.412c.542.241,1.083.476,1.63.717l6.158,2.713,2.457,1.083Z" transform="translate(-41.999 -251.238)" fill="#fff"/>
      <path id="Path_530" data-name="Path 530" d="M532.015,271.339q.684-.3,1.359-.6c1.86-.822,3.731-1.64,5.591-2.462,1.3-.577,2.613-1.148,3.916-1.725v5.962a1,1,0,1,0,2.006,0v-6.845c.351-.17.762-.341,1.148-.506.3-.13.6-.266.893-.4q3.069-1.354,6.138-2.7a.4.4,0,0,1,.045-.02c.486-.216,1-.431,1.454-.642V283.61c0,.9-.01,1.8-.005,2.7l-1.936.857-5.872,2.587q-3.55,1.565-7.106,3.129l-6.138,2.708c-.5.221-1.008.431-1.509.647V273.671c.005-.777.015-1.555.01-2.332Z" transform="translate(-507.428 -251.238)" fill="#fff"/>
      <path id="Path_531" data-name="Path 531" d="M95.279,165.115c-.642-.281-1.279-.562-1.921-.847l-5.872-2.587-7.106-3.129-6.143-2.708c-.311-.14-.627-.276-.938-.416,0,0,.01,0,.01-.005l.115-.045q2.941-1.158,5.877-2.322,2.1-.827,4.192-1.655c.757.311,1.519.622,2.277.938l5.877,2.417q3.543,1.459,7.085,2.913,3.069,1.264,6.148,2.527c.271.11.542.226.807.341q-.873.384-1.74.767l-6.138,2.708c-.837.371-1.69.717-2.527,1.1Z" transform="translate(-71.729 -146.754)" fill="#fff"/>
      <path id="Path_532" data-name="Path 532" d="M361.115,67.48c-.12.05-.241.105-.361.16l-5.872,2.587q-1.414.624-2.828,1.244l-2.236-.918-5.877-2.417q-3.543-1.459-7.085-2.913L330.707,62.7,330,62.4c.07-.03.14-.055.211-.085q3.084-1.219,6.163-2.432l2.016-.8c.246-.1.5-.186.742-.286l2.171.857q2.941,1.158,5.877,2.322l7.086,2.8q3.084,1.219,6.163,2.432C360.659,67.29,360.889,67.385,361.115,67.48Z" transform="translate(-315.557 -58.797)" fill="#fff"/>
    </g>
  </g>
</svg>
