<svg xmlns="http://www.w3.org/2000/svg" width="272" height="150" viewBox="0 0 272 150">
  <g id="Group_9" data-name="Group 9" transform="translate(-1014 -540)">
    <g id="Group_8" data-name="Group 8" transform="translate(1014 540)">
      <g id="Group_7" data-name="Group 7">
        <g id="bg6">
          <rect id="Rectangle_1041" data-name="Rectangle 1041" width="272" height="150" transform="translate(0)" fill="none"/>
        </g>
        <g id="money" transform="translate(207.705 13.993)" opacity="0.15">
          <g id="Group_2" data-name="Group 2">
            <path id="Path_5" data-name="Path 5" d="M54.81,116.891a1.164,1.164,0,0,0-1.627-.318l-8.8,5.766H32.806V117.5H44.739a1.169,1.169,0,0,0,.684-.236l9.08-6.556a1.174,1.174,0,0,0-1.38-1.9l-8.762,6.332H32.806v-4.953H44.739a1.168,1.168,0,0,0,.731-.224l9.08-7.158a1.184,1.184,0,1,0-1.462-1.863l-8.762,6.887H32.806v-4.717H44.739a1.256,1.256,0,0,0,.8-.33l9.08-8.42a1.225,1.225,0,0,0,.295-1.321,1.212,1.212,0,0,0-1.1-.778H42.569c-.012,0-.035-.212-.071-.307a1.19,1.19,0,0,0-1.1-.755H23.36a1.185,1.185,0,0,0-.8.318l-.79.743H10.259a1.209,1.209,0,0,0-.8.342l-9.08,8.408a1.225,1.225,0,0,0-.295,1.321,1.212,1.212,0,0,0,1.1.778H12.4v4.717H1.179a1.179,1.179,0,0,0,0,2.358H12.4v4.953H1.179a1.179,1.179,0,0,0,0,2.358H12.4v4.835H1.179a1.179,1.179,0,0,0,0,2.358h43.56a1.163,1.163,0,0,0,.649-.224l9.08-5.943a1.192,1.192,0,0,0,.342-1.632ZM40.742,94.675c.012,0,.024-.047.047-.047H50.812l-6.533,6.132H34.244ZM12.735,100.76H4.186l6.533-6.132h8.514L12.8,100.666C12.771,100.677,12.759,100.642,12.735,100.76Zm13.242,6.969H27.57a1.179,1.179,0,0,1,0,2.358H25.978a5.489,5.489,0,0,1-1.368,2.429,5.109,5.109,0,0,1-3.337,1.474l4.469,4.222.012.012a1.177,1.177,0,1,1-1.627,1.7l-6.615-6.262a1.217,1.217,0,0,1-.366-.849,1.188,1.188,0,0,1,1.179-1.2h2.653a2.75,2.75,0,0,0,1.981-.778,3.888,3.888,0,0,0,.554-.755H18.337a1.179,1.179,0,0,1,0-2.358h5.177a2.649,2.649,0,0,0-2.524-1.651H18.337a1.179,1.179,0,1,1,0-2.358h9.245a1.183,1.183,0,0,1,1.179,1.179,1.2,1.2,0,0,1-1.191,1.191H25.294a5.209,5.209,0,0,1,.684,1.646Z" transform="translate(0 -91.201)" fill="#fff"/>
          </g>
        </g>
        <g id="rupee_1_" data-name="rupee (1)" transform="translate(18.997 100.996)" opacity="0.15">
          <g id="Group_4" data-name="Group 4">
            <g id="Group_3" data-name="Group 3">
              <path id="Path_6" data-name="Path 6" d="M54.989,96.736c-.066-1.523-1.556-2.74-4.438-3.616a31.62,31.62,0,0,0-8.142-1.14V80.287a1.185,1.185,0,0,0-.164-.548c-.307-1.326-1.786-2.4-4.4-3.189a32.625,32.625,0,0,0-9.074-1.15,31.806,31.806,0,0,0-8.986,1.151c-1.983.614-4.361,1.753-4.361,3.715a2.018,2.018,0,0,0,.033.362l.121,5a13.113,13.113,0,1,0,5.808,23.056,32.407,32.407,0,0,0,7.013.767c.559,3.035,7.134,4.427,13.26,4.427A31.362,31.362,0,0,0,50.64,112.7c1.983-.614,4.361-1.764,4.361-3.726V96.944a1.326,1.326,0,0,0-.012-.208ZM40.119,86.347c0,.142-.526.9-2.9,1.622a31.018,31.018,0,0,1-8.438,1.063,31.352,31.352,0,0,1-7.463-.822c-.033-.011-.055-.011-.088-.022a12.643,12.643,0,0,0-3.43-1.94l-.077-3.09a12.14,12.14,0,0,0,2.367.91,32.389,32.389,0,0,0,8.69,1.063,32.682,32.682,0,0,0,9.07-1.151,13.144,13.144,0,0,0,2.378-.953V85.9A.629.629,0,0,0,40.119,86.347ZM20.437,78.666A29.6,29.6,0,0,1,28.766,77.6,30.6,30.6,0,0,1,37.2,78.666c2.378.723,2.9,1.468,2.9,1.611s-.537.91-2.915,1.622a30.965,30.965,0,0,1-8.427,1.052,30.088,30.088,0,0,1-8.076-.986c-2.356-.679-3.014-1.425-3.068-1.666,0-.022-.011-.022-.011-.022C17.621,80.068,18.125,79.367,20.437,78.666Zm.033,27.922A10.922,10.922,0,1,1,13.117,87.6a11.161,11.161,0,0,1,3.233.482,10.967,10.967,0,0,1,7.474,8.23,11.46,11.46,0,0,1,.219,2.2,10.858,10.858,0,0,1-3.573,8.076Zm2.783.241a13.232,13.232,0,0,0,2.1-3.605c.931.077,1.9.132,2.9.142v.2l.066,3.715a34.228,34.228,0,0,1-5.065-.452Zm2.926-9.621c.636.044,1.3.066,1.983.077l.066,3.879c-.767-.011-1.523-.044-2.246-.1a13.471,13.471,0,0,0,.252-2.564c0-.427-.022-.855-.054-1.293Zm2.7-2.1h-.11c-1.052,0-2.071-.044-3.014-.11a12.992,12.992,0,0,0-1.962-4.077,39.468,39.468,0,0,0,4.964.318,32.708,32.708,0,0,0,9.084-1.151,13.839,13.839,0,0,0,2.367-.942v2.871c-4.7.127-9.536,1.114-11.333,3.083Zm1.447,1.742a.083.083,0,0,1,.011-.044c.1-.3.877-1.019,3.145-1.655A29.824,29.824,0,0,1,41.3,94.22h.186a30.712,30.712,0,0,1,8.438,1.041c2.334.7,2.882,1.425,2.893,1.589v.011c-.011.164-.559.921-2.992,1.644a30.441,30.441,0,0,1-8.328,1.03,30.569,30.569,0,0,1-8.076-.975c-2.356-.679-3-1.436-3.068-1.666ZM50,110.62a29.257,29.257,0,0,1-8.339,1.074,29.82,29.82,0,0,1-8.317-1.041c-2.312-.712-2.794-1.447-2.794-1.611v-.022l-.055-3.178a14.278,14.278,0,0,0,2.729,1,33.725,33.725,0,0,0,8.23.942,32.406,32.406,0,0,0,9.052-1.151,14.047,14.047,0,0,0,2.3-.931v3.288h.011C52.819,109.141,52.315,109.9,50,110.62Zm2.827-8.065h-.011c0,.11-.066.241-.066.362,0,.153-.515.9-2.882,1.622a30.319,30.319,0,0,1-8.4,1.052c-6.071,0-10.158-1.37-11.013-2.433l-.011-.92-.044-2.52a13.446,13.446,0,0,0,2.389.92,32.389,32.389,0,0,0,8.69,1.063,32.8,32.8,0,0,0,8.953-1.118,12.55,12.55,0,0,0,2.4-.942Z" transform="translate(0.003 -75.396)" fill="#fff"/>
            </g>
          </g>
          <g id="Group_6" data-name="Group 6" transform="translate(7.838 15.627)">
            <g id="Group_5" data-name="Group 5">
              <path id="Path_7" data-name="Path 7" d="M80.924,221.616H79.511a4.49,4.49,0,0,0-.581-1.425h1.994A1.1,1.1,0,1,0,80.946,218H72.607a1.1,1.1,0,0,0,0,2.192H75a2.414,2.414,0,0,1,2.225,1.425H72.607a1.1,1.1,0,0,0,0,2.192h4.6a2.6,2.6,0,0,1-.471.625,2.431,2.431,0,0,1-1.753.69H72.6a1.111,1.111,0,0,0-1.1,1.118,1.131,1.131,0,0,0,.34.789l5.961,5.633a1.093,1.093,0,0,0,1.5-1.589l-3.967-3.748a4.6,4.6,0,0,0,2.948-1.337,4.808,4.808,0,0,0,1.227-2.181h1.414a1.1,1.1,0,0,0,0-2.192Z" transform="translate(-71.5 -217.996)" fill="#fff"/>
            </g>
          </g>
        </g>
      </g>
    </g>
  </g>
</svg>
