<svg xmlns="http://www.w3.org/2000/svg" width="272" height="150" viewBox="0 0 272 150">
  <g id="Group_17" data-name="Group 17" transform="translate(-1014 -540)">
    <rect id="Rectangle_1041" data-name="Rectangle 1041" width="272" height="150" transform="translate(1014 540)" fill="none" opacity="0.15"/>
    <g id="Group_15" data-name="Group 15" transform="translate(1219.705 549)" opacity="0.15">
      <path id="Path_8" data-name="Path 8" d="M83.123,39.139H75.108v-11.2A.984.984,0,0,0,73.8,27.03l-9.754,3.458-3.629-3.595a.97.97,0,0,0-1.368,0L50.721,35.2,37.013,39.139h0a.963.963,0,0,0-.916,1.013v19.52A11.755,11.755,0,1,0,51.317,75.731H83.122a.936.936,0,0,0,.951-.948V40.152A.993.993,0,0,0,83.123,39.139Zm-9.953-9.823v9.823h-.353L65.582,31.98ZM59.736,28.9,70.062,39.139H49.5ZM47.883,38.016,46.76,39.139H44ZM40.819,80.261a9.834,9.834,0,1,1,9.834-9.834,9.834,9.834,0,0,1-9.834,9.834ZM82.135,63.736H75.8a6.24,6.24,0,0,1,0-12.48h6.335Zm0-14.419H75.8a8.179,8.179,0,1,0,0,16.357h6.335v8.118H52.094A11.759,11.759,0,0,0,40.846,58.65,11.165,11.165,0,0,0,38.031,59V41.078h44.1Z" transform="translate(-29.074 -26.612)" fill="#fff" opacity="0.86"/>
      <path id="Path_9" data-name="Path 9" d="M376.6,256.806a3.421,3.421,0,1,0,3.421-3.42,3.421,3.421,0,0,0-3.421,3.42Zm4.9,0a1.482,1.482,0,1,1-1.482-1.482,1.482,1.482,0,0,1,1.482,1.482Z" transform="translate(-334.492 -225.909)" fill="#fff"/>
      <path id="Path_10" data-name="Path 10" d="M95.891,336.969a.969.969,0,0,0-.969-.969H87.554a.969.969,0,1,0,0,1.939h2.108a2.176,2.176,0,0,1,1.963,1.212H87.554a.969.969,0,1,0,0,1.939h4.071a2.29,2.29,0,0,1-1.963,1.333H87.554a.94.94,0,0,0-.666,1.632l5.27,4.973a.971.971,0,1,0,1.331-1.415l-3.511-3.345a4.045,4.045,0,0,0,3.7-3.177h1.244a.969.969,0,1,0,0-1.939H93.676a4.93,4.93,0,0,0-.516-1.212h1.761A.969.969,0,0,0,95.891,336.969Z" transform="translate(-79.614 -298.513)" fill="#fff"/>
    </g>
    <g id="Group_16" data-name="Group 16" transform="translate(1031 624)" opacity="0.15">
      <path id="Path_11" data-name="Path 11" d="M15.624,282H10.448a1.372,1.372,0,0,0-1.369,1.369v19.119a1.372,1.372,0,0,0,1.369,1.369h5.175a1.372,1.372,0,0,0,1.369-1.369V283.369A1.372,1.372,0,0,0,15.624,282Z" transform="translate(-9.079 -246.576)" fill="#fff"/>
      <path id="Path_12" data-name="Path 12" d="M136.183,267.376a1.048,1.048,0,0,1-.1-.151,2.181,2.181,0,0,0-2.965-.264c-2.512,2.048-6.18,5-8.554,6.921a12.609,12.609,0,0,1-7.374,2.738l-6.432.214a3.233,3.233,0,0,1-2.889-1.583l-.716-1.218a3.3,3.3,0,0,1-.389-1.03,3.227,3.227,0,0,1,2.563-3.768l6.645-1.256a2.1,2.1,0,0,0,1.671-2.3,2.07,2.07,0,0,0-2.035-1.809h-.264l-8.944-.364a17.892,17.892,0,0,0-8.944,2.022l-5.376,2.6v14.32l4.51-.829a.046.046,0,0,1,.038-.013,22.231,22.231,0,0,1,4.8-.276l13.5.628a17.077,17.077,0,0,0,11.645-3.932l9.346-7.751A2.079,2.079,0,0,0,136.183,267.376Z" transform="translate(-81.653 -230.395)" fill="#fff"/>
      <path id="Path_13" data-name="Path 13" d="M210.5,0a13.941,13.941,0,0,0-13.918,13.918v.013A13.925,13.925,0,1,0,210.5,0Zm3.228,10.049h1.683a1.256,1.256,0,1,1,0,2.512h-1.683a5.624,5.624,0,0,1-1.47,2.588,5.414,5.414,0,0,1-3.53,1.57l4.736,4.484a1.253,1.253,0,1,1-1.721,1.821l-7.022-6.645a1.3,1.3,0,0,1-.389-.9,1.265,1.265,0,0,1,1.256-1.281H208.4a2.932,2.932,0,0,0,2.1-.842,4,4,0,0,0,.578-.791h-5.489a1.256,1.256,0,1,1,0-2.512h5.489A3,3,0,0,0,208.4,8.291h-2.814a1.256,1.256,0,0,1,0-2.512h9.823a1.256,1.256,0,1,1,0,2.512H213A5.273,5.273,0,0,1,213.726,10.049Z" transform="translate(-173.026 0)" fill="#fff"/>
    </g>
  </g>
</svg>
