<svg xmlns="http://www.w3.org/2000/svg" width="17.684" height="19.662" viewBox="0 0 17.684 19.662">
  <g id="calendar" transform="translate(-18.276 0)">
    <path id="Path_1" data-name="Path 1" d="M35.553,3.222A1.287,1.287,0,0,0,34.6,2.8H33.24V1.752a1.719,1.719,0,0,0-.5-1.24A1.612,1.612,0,0,0,31.535,0h-.68a1.612,1.612,0,0,0-1.2.516,1.718,1.718,0,0,0-.5,1.24V2.805H25.074V1.752a1.719,1.719,0,0,0-.5-1.24A1.612,1.612,0,0,0,23.373,0h-.68a1.612,1.612,0,0,0-1.2.516,1.719,1.719,0,0,0-.5,1.24V2.805h-1.36a1.287,1.287,0,0,0-.957.417,1.372,1.372,0,0,0-.4.988V18.257a1.372,1.372,0,0,0,.4.988,1.288,1.288,0,0,0,.957.417H34.6a1.4,1.4,0,0,0,1.36-1.4V4.21a1.372,1.372,0,0,0-.4-.988ZM22.693,18.256H19.632V15.1h3.061Zm0-3.863H19.632V10.882h3.061Zm0-4.214H19.632V7.019h3.061Zm-.239-5.021a.343.343,0,0,1-.1-.247V1.752a.351.351,0,0,1,.34-.351h.68a.351.351,0,0,1,.34.351v3.16a.351.351,0,0,1-.34.351h-.68a.322.322,0,0,1-.239-.1Zm4.32,13.1h-3.4V15.1h3.4v3.161Zm0-3.863h-3.4V10.882h3.4v3.511Zm0-4.214h-3.4V7.019h3.4v3.16Zm4.081,8.077h-3.4V15.1h3.4Zm0-3.863h-3.4V10.882h3.4Zm0-4.214h-3.4V7.019h3.4Zm-.239-5.02a.343.343,0,0,1-.1-.247V1.752a.35.35,0,0,1,.34-.351h.68a.35.35,0,0,1,.34.351v3.16a.35.35,0,0,1-.34.351h-.68a.321.321,0,0,1-.239-.1Zm3.98,13.1H31.535V15.1H34.6Zm0-3.863H31.535V10.882H34.6Zm0-4.214H31.535V7.019H34.6Z" fill="#ffce78"/>
  </g>
</svg>
