<svg xmlns="http://www.w3.org/2000/svg" width="20.043" height="19.945" viewBox="0 0 20.043 19.945">
  <g id="checkin_icon1" transform="translate(-39.976 -508.024)">
    <path id="Path_133" data-name="Path 133" d="M139.3,134.559a4.744,4.744,0,1,0,4.744,4.744,4.744,4.744,0,0,0-4.744-4.744Zm2.089,4.1-2.135,2.135a.594.594,0,0,1-.84,0l-1.2-1.2a.594.594,0,1,1,.84-.84l.784.784,1.715-1.716a.594.594,0,1,1,.84.84Zm0,0" transform="translate(-89.559 378.697)"/>
    <path id="Path_134" data-name="Path 134" d="M19.406,9.406h-.862a8.565,8.565,0,0,0-7.95-7.95V.594a.594.594,0,0,0-1.187,0v.862a8.565,8.565,0,0,0-7.95,7.95H.594a.594.594,0,1,0,0,1.187h.862a8.565,8.565,0,0,0,7.95,7.95V19.4a.594.594,0,0,0,1.187,0v-.862a8.565,8.565,0,0,0,7.95-7.95H19.4a.594.594,0,1,0,0-1.187Zm-8.813,7.947v-.818a.594.594,0,1,0-1.187,0v.818a7.389,7.389,0,0,1-6.759-6.759h.818a.594.594,0,1,0,0-1.187H2.647a7.389,7.389,0,0,1,6.759-6.76v.818a.594.594,0,1,0,1.187,0V2.647a7.389,7.389,0,0,1,6.759,6.759h-.818a.594.594,0,1,0,0,1.187h.818a7.389,7.389,0,0,1-6.758,6.76Zm0,0" transform="translate(40 508)"/>
  </g>
</svg>
