<svg xmlns="http://www.w3.org/2000/svg" width="26.963" height="25" viewBox="0 0 26.963 25"><defs><style>.a{fill:#870200;}.b{fill:#b81d1b;}.c{fill:#fdc578;}.d{fill:#e40000;}.e{fill:#fff;}</style></defs><g transform="translate(-216 -324)"><path class="a" d="M19.98.5H1.99A1.992,1.992,0,0,0,0,2.49V20.48a1.992,1.992,0,0,0,1.99,1.99H19.98a1.992,1.992,0,0,0,1.99-1.99V2.49A1.992,1.992,0,0,0,19.98.5Zm0,0" transform="translate(216 323.5)"/><path class="b" d="M1.99.5A1.992,1.992,0,0,0,0,2.489V20.48a1.992,1.992,0,0,0,1.99,1.99h8.995V.5Zm0,0" transform="translate(216 323.501)"/><path class="c" d="M140.727.5V8.024a.81.81,0,0,0,1.123.747l2.45-1.027V.5Zm0,0" transform="translate(82.684 323.5)"/><path class="d" d="M237.889,193.711a7.413,7.413,0,1,0,7.413,7.413,7.413,7.413,0,0,0-7.413-7.413Zm0,0" transform="translate(-2.339 140.464)"/><path class="e" d="M358.646,266.1h-2.193v-2.193a.81.81,0,0,0-1.62,0v3a.81.81,0,0,0,.81.81h3a.81.81,0,0,0,0-1.62Zm0,0" transform="translate(-120.146 74.731)"/></g></svg>