<svg xmlns="http://www.w3.org/2000/svg" width="17.114" height="16" viewBox="0 0 17.114 16">
  <g id="dashboard_icon" transform="translate(-40.997 -211)">
    <path id="ic_tv_24px" d="M16.556,3h-14A1.683,1.683,0,0,0,1,4.778V15.444a1.683,1.683,0,0,0,1.556,1.778H6.444V19h6.222V17.222h3.889A1.677,1.677,0,0,0,18.1,15.444l.008-10.667A1.683,1.683,0,0,0,16.556,3Zm0,12.444h-14V4.778h14Z" transform="translate(40 208)" fill="#ffce78"/>
    <path id="Path_1" data-name="Path 1" d="M106.6,261.732h0v-.06h0l1.856-1.976,2.814,1.2,2.635-2.994,2.695-.3v6.587h-10v-2.515l.18-.12-.045.659.045-.659" transform="translate(-61.6 -42.791)" fill="#ffce78"/>
  </g>
</svg>
