<svg xmlns="http://www.w3.org/2000/svg" width="24.569" height="25" viewBox="0 0 24.569 25"><defs><style>.a{fill:#efebde;}.b{fill:#f05565;}.c{fill:#d5d0bb;}.d{fill:#36495e;}.e{fill:#7f6e5d;}.f{fill:#b1d3ef;}.g{fill:#556080;}</style></defs><g transform="translate(-217 -494)"><path class="a" d="M3.948,15H.5V33.534H23.775V15Z" transform="translate(216.5 485.465)"/><g transform="translate(217 494)"><path class="b" d="M20.327,4V5.724H17.31V4H6.965V5.724H3.948V4H.5V8.741H23.775V4Z" transform="translate(-0.5 -2.276)"/><path class="c" d="M21,22H8.5V34.5H24.879V22Zm-3.88.859h3.02v3.017H17.12Zm3.02,6.9H17.12V26.741h3.02Zm-6.9-3.017h3.017v3.017H13.241Zm0-3.88h3.017v3.017H13.241Zm-3.884,0h3.017v3.017H9.359Zm0,3.88h3.017v3.017H9.359Zm3.02,6.9H9.359V30.62h3.017Zm3.88,0H13.241V30.62h3.017Zm3.88,0H17.12V30.62h3.02Zm3.88,0H21V30.62h3.017Zm0-3.88H21V26.741h3.017ZM21,25.88v-3.02h3.017v3.017Z" transform="translate(-5.052 -12.517)"/><rect class="d" width="3.017" height="3.448" transform="translate(3.448)"/><rect class="d" width="3.017" height="3.448" transform="translate(16.81)"/><rect class="e" width="3.017" height="3.017" transform="translate(8.19 14.224)"/><circle class="f" cx="5.388" cy="5.388" r="5.388" transform="translate(13.793 14.224)"/><path class="g" d="M43.2,46.008a.427.427,0,0,0-.506.34,3.791,3.791,0,0,1-3.672,3.1,3.75,3.75,0,0,1-3.354-2.156h2.28v-.859H34.5v3.448h.859V48.438a4.578,4.578,0,0,0,3.664,1.875,4.656,4.656,0,0,0,4.518-3.8.431.431,0,0,0-.337-.509Z" transform="translate(-19.846 -26.172)"/><path class="g" d="M42.689,35.428v1.44a4.577,4.577,0,0,0-3.664-1.875,4.656,4.656,0,0,0-4.518,3.8.431.431,0,1,0,.846.166,3.791,3.791,0,0,1,3.672-3.1,3.75,3.75,0,0,1,3.359,2.155H40.1v.859h3.448V35.432Z" transform="translate(-19.846 -19.912)"/></g></g></svg>