<svg xmlns="http://www.w3.org/2000/svg" width="20.676" height="20" viewBox="0 0 20.676 20">
  <g id="sale" transform="translate(-1 -9.368)">
    <g id="Group_634" data-name="Group 634" transform="translate(1 9.368)">
      <g id="Group_633" data-name="Group 633" transform="translate(0 0)">
        <path id="Path_115" data-name="Path 115" d="M265.877,276.981a.735.735,0,0,0,0-1.468Z" transform="translate(-255.183 -264.768)" fill="#eee"/>
        <path id="Path_116" data-name="Path 116" d="M230.566,219.751a.856.856,0,0,0,.713.734v-1.468A.856.856,0,0,0,230.566,219.751Z" transform="translate(-221.297 -210.553)" fill="#eee"/>
        <path id="Path_117" data-name="Path 117" d="M18.822,20.064a.332.332,0,0,0,.045-.009v.006a1.426,1.426,0,1,0,0-.706v.006a.338.338,0,0,0-.045-.009H17.03a5.666,5.666,0,0,0-1.579-3.585l3.635-3.635a.354.354,0,0,0,.074-.111h0a1.427,1.427,0,1,0-.474-.463h0a.351.351,0,0,0-.1.07l-3.655,3.655h0a5.684,5.684,0,0,0-7.542.324h0L5.113,13.335a.336.336,0,0,0-.037-.025l0,0a1.426,1.426,0,1,0-.5.5l0,0a.333.333,0,0,0,.025.037L6.9,16.131h0a5.666,5.666,0,0,0-1.255,3.218H3.853a.332.332,0,0,0-.045.009v-.006a1.426,1.426,0,1,0,0,.706v-.006a.338.338,0,0,0,.045.009H5.646A5.651,5.651,0,0,0,6.913,23.3l-2.3,2.276a.331.331,0,0,0-.026.039l0,0a1.427,1.427,0,1,0,.5.5l0,0a.337.337,0,0,0,.035-.023L7.4,23.824h0a5.692,5.692,0,0,0,7.519.321L17.966,27.2a.338.338,0,0,0,.04.026l0,0a1.42,1.42,0,1,0,.5-.5l0,0a.342.342,0,0,0-.025-.038l-3.029-3.03a5.678,5.678,0,0,0,1.589-3.6h1.793ZM20,19.454l.053-.043a.27.27,0,0,1,.064-.032.226.226,0,0,1,.064-.021.3.3,0,0,1,.139,0,.214.214,0,0,1,.068.021.271.271,0,0,1,.064.032l.053.043.043.053a.268.268,0,0,1,.032.064.227.227,0,0,1,.021.064.359.359,0,0,1,0,.143.227.227,0,0,1-.021.064.269.269,0,0,1-.032.064l-.043.053L20.448,20a.27.27,0,0,1-.064.032.214.214,0,0,1-.068.021.438.438,0,0,1-.068.007.481.481,0,0,1-.071-.007.225.225,0,0,1-.064-.021A.27.27,0,0,1,20.048,20L20,19.96a.561.561,0,0,1-.043-.053.269.269,0,0,1-.032-.064.227.227,0,0,1-.021-.064.541.541,0,0,1-.007-.071A.375.375,0,0,1,20,19.454Zm-.431-8.793a.366.366,0,0,1,.075-.118.373.373,0,0,1,.506,0,.41.41,0,0,1,.075.118.335.335,0,0,1,0,.271.409.409,0,0,1-.075.118.368.368,0,0,1-.253.1.375.375,0,0,1-.253-.1.409.409,0,0,1-.075-.118A.336.336,0,0,1,19.564,10.662ZM4.181,12.715a.331.331,0,0,1-.075.118.361.361,0,0,1-.506,0,.368.368,0,0,1-.075-.388.366.366,0,0,1,.075-.118.356.356,0,0,1,.581.388Zm-1.4,7.064a.227.227,0,0,1-.021.064.269.269,0,0,1-.032.064l-.043.053c-.018.014-.036.029-.057.043a.2.2,0,0,1-.061.032.355.355,0,0,1-.135.029.528.528,0,0,1-.071-.007.225.225,0,0,1-.064-.021A.27.27,0,0,1,2.228,20l-.053-.043-.043-.053a.268.268,0,0,1-.032-.064.227.227,0,0,1-.021-.064.49.49,0,0,1-.007-.071.354.354,0,0,1,.029-.135.366.366,0,0,1,.075-.118l.053-.043a.271.271,0,0,1,.064-.032.227.227,0,0,1,.064-.021.341.341,0,0,1,.207.021.2.2,0,0,1,.061.032c.021.014.039.029.057.043a.368.368,0,0,1,.075.118.354.354,0,0,1,.029.135A.479.479,0,0,1,2.777,19.779Zm1.329,7.31a.361.361,0,0,1-.506,0,.368.368,0,0,1-.1-.253.354.354,0,0,1,.029-.135.41.41,0,0,1,.075-.118.373.373,0,0,1,.506,0,.41.41,0,0,1,.075.118.354.354,0,0,1,.029.135A.375.375,0,0,1,4.106,27.089Zm14.791.727a.355.355,0,0,1,.4-.214.5.5,0,0,1,.068.021.5.5,0,0,1,.061.032l.053.043a.426.426,0,0,1,.078.118.351.351,0,0,1,.025.135.383.383,0,0,1-.025.139.363.363,0,0,1-.078.114.28.28,0,0,1-.053.043.532.532,0,0,1-.061.036.477.477,0,0,1-.068.018.244.244,0,0,1-.071.007.345.345,0,0,1-.25-.1.313.313,0,0,1-.078-.114.372.372,0,0,1-.029-.139A.355.355,0,0,1,18.9,27.816ZM13.12,18.567a.356.356,0,0,1-.713,0,.854.854,0,0,0-.713-.734V19.38a1.6,1.6,0,0,1,1.426,1.468,1.6,1.6,0,0,1-1.426,1.468v.242a.356.356,0,0,1-.713,0v-.242a1.6,1.6,0,0,1-1.426-1.468.356.356,0,0,1,.713,0,.854.854,0,0,0,.713.734V20.035a1.6,1.6,0,0,1-1.426-1.468A1.6,1.6,0,0,1,10.981,17.1v-.242a.356.356,0,0,1,.713,0V17.1A1.6,1.6,0,0,1,13.12,18.567Zm-6.059,1.14a.357.357,0,0,1-.713.014v-.014a4.965,4.965,0,0,1,.392-1.942A5.038,5.038,0,0,1,9.4,15.11a4.965,4.965,0,0,1,1.942-.392.356.356,0,0,1,0,.713,4.285,4.285,0,0,0-1.664.335A4.338,4.338,0,0,0,7.4,18.043,4.286,4.286,0,0,0,7.061,19.707Zm6.219,4.6a4.975,4.975,0,0,1-5.467-1.069.357.357,0,0,1,.5-.506,4.259,4.259,0,0,0,4.687.92.356.356,0,0,1,.467.189A.361.361,0,0,1,13.28,24.305Zm3.047-4.6a4.965,4.965,0,0,1-.392,1.942.356.356,0,0,1-.328.217.373.373,0,0,1-.139-.029.356.356,0,0,1-.189-.467,4.259,4.259,0,0,0-.92-4.687.359.359,0,0,1,0-.506.355.355,0,0,1,.5,0,4.957,4.957,0,0,1,1.465,3.514Z" transform="translate(-1 -9.368)" fill="#eee"/>
      </g>
    </g>
  </g>
</svg>
