<svg xmlns="http://www.w3.org/2000/svg" width="42.373" height="44.556" viewBox="0 0 42.373 44.556">
  <defs>
    <style>
      .cls-1 {
        fill: #ffce78;
      }
    </style>
  </defs>
  <g id="expense" transform="translate(-1.091 0)">
    <g id="Group_2" data-name="Group 2">
      <path id="Path_3" data-name="Path 3" class="cls-1" d="M42.313,20.889,22.592,1.166a3.976,3.976,0,0,0-5.626,0l-10.8,10.8a4.038,4.038,0,0,0,0,5.676l1.79,1.839h4.129l-3.854-3.9a1.106,1.106,0,0,1-.31-.774,1.078,1.078,0,0,1,.31-.761l1.426-1.382,6.777,6.821h6.5L12.907,9.4,19.03,3.254a1.076,1.076,0,0,1,.749-.321,1.045,1.045,0,0,1,.749.3L40.25,22.956a1.051,1.051,0,0,1,.312.748,1.116,1.116,0,0,1-.341.749L39.1,25.544v4.129l3.184-3.155a3.981,3.981,0,0,0,.029-5.629Z"/>
      <path id="Path_4" data-name="Path 4" class="cls-1" d="M33.06,21.328H5.167a4.053,4.053,0,0,0-4.076,3.967v10.55h35.9V25.3a3.927,3.927,0,0,0-3.931-3.967ZM10.839,32.253a2.882,2.882,0,0,1-2-.81,2.9,2.9,0,1,1,0-4.172,2.894,2.894,0,1,1,2,4.982Z"/>
      <path id="Path_5" data-name="Path 5" class="cls-1" d="M1.091,40.566a4.072,4.072,0,0,0,4.076,3.99H33.06a3.948,3.948,0,0,0,3.93-3.99v-.234H1.091Z"/>
    </g>
  </g>
</svg>
