<svg xmlns="http://www.w3.org/2000/svg" width="432.01" height="432.036" viewBox="0 0 432.01 432.036">
  <g id="expensive1" transform="translate(-0.015)">
    <g id="Group_3" data-name="Group 3">
      <g id="Group_2" data-name="Group 2">
        <g id="Group_1" data-name="Group 1">
          <path id="Path_1" data-name="Path 1" d="M126.649,362.44a126.051,126.051,0,0,1-33.136-23.888A123.617,123.617,0,0,1,74.849,314.8a8,8,0,1,0-13.861,7.993c.048.084.1.166.149.248a139.681,139.681,0,0,0,21.056,26.824,141.888,141.888,0,0,0,37.344,26.912,8,8,0,0,0,7.112-14.337Z"/>
          <path id="Path_2" data-name="Path 2" d="M184.017,320.04a32,32,0,0,1-32-32h-16a48.048,48.048,0,0,0,40,47.28v16.72h16V335.32a48,48,0,0,0-8-95.28,32,32,0,1,1,32-32h16a48.048,48.048,0,0,0-40-47.28V144.04h-16v16.72a48,48,0,0,0,8,95.28,32,32,0,1,1,0,64Z"/>
          <path id="Path_3" data-name="Path 3" d="M333.065,74.056A8.019,8.019,0,0,0,322.873,86.44a169.906,169.906,0,0,1,23.1,23.128,8,8,0,0,0,12.376-10.144A186.19,186.19,0,0,0,333.065,74.056Z"/>
          <path id="Path_4" data-name="Path 4" d="M82.341,146.076a144,144,0,0,0-36.66,141.6,8,8,0,0,0,15.392-4.384A127.952,127.952,0,0,1,274.521,157.543q4.56,4.553,8.568,9.416a127.391,127.391,0,0,1-4.272,167.08c-.128.112-.24.24-.368.36l-.144.144c-.1.1-.2.184-.288.28-1.088,1.232-2.24,2.472-3.5,3.72a128,128,0,0,1-115.3,35.008,8,8,0,0,0-3.112,15.7,144,144,0,0,0,129.752-39.376c1.256-1.248,2.4-2.5,3.568-3.752a7.951,7.951,0,0,0,.584-.576A143.991,143.991,0,1,0,82.318,146.053Z"/>
          <path id="Path_5" data-name="Path 5" d="M285.841,146.224Z"/>
          <path id="Path_6" data-name="Path 6" d="M248.056,0a184.019,184.019,0,0,0-145.3,71.055A179.758,179.758,0,0,0,70.9,102.912c-80.146,62.476-94.47,178.1-31.994,258.241s178.1,94.47,258.241,31.994a184.021,184.021,0,0,0,32-32,183.486,183.486,0,0,0,32-32.08A183.971,183.971,0,0,0,248.056,0Zm81.377,332.328A168.055,168.055,0,1,1,81.489,114.92a171.385,171.385,0,0,1,18.224-12.28,168.12,168.12,0,0,1,229.72,229.688Zm45.9-208.384a8,8,0,1,0-14.178,7.417c.1.2.217.394.337.584a167.817,167.817,0,0,1-2.048,171.392A183.84,183.84,0,0,0,128.656,72.625a166.079,166.079,0,0,1,87.36-24.584,167.763,167.763,0,0,1,84.752,22.9,8,8,0,0,0,8.048-13.808,184.1,184.1,0,0,0-148.5-16.464A168,168,0,0,1,391.465,271.416a183.953,183.953,0,0,0-16.128-147.472Z"/>
        </g>
      </g>
    </g>
  </g>
</svg>
