<svg xmlns="http://www.w3.org/2000/svg" width="21.716" height="23.348" viewBox="0 0 21.716 23.348">
  <g id="followup" transform="translate(-6.274)">
    <g id="Group_1" data-name="Group 1" transform="translate(6.274 0)">
      <path id="Path_1" data-name="Path 1" d="M10.058,3.663a.933.933,0,0,1-.908.957H7.183a.933.933,0,0,1-.909-.957h0a.933.933,0,0,1,.909-.956H9.149a.933.933,0,0,1,.908.956Zm0,5.341a.934.934,0,0,0-.908-.957H7.183A.933.933,0,0,0,6.274,9h0a.933.933,0,0,0,.909.957H9.149A.935.935,0,0,0,10.058,9Zm0,5.339a.933.933,0,0,0-.908-.957H7.183a.933.933,0,0,0-.909.957h0a.934.934,0,0,0,.909.957H9.149a.933.933,0,0,0,.908-.957Zm0,5.339a.932.932,0,0,0-.908-.955H7.183a.933.933,0,0,0-.909.955h0a.933.933,0,0,0,.909.957H9.149a.933.933,0,0,0,.908-.957ZM27.99,1.045V22.3a1.044,1.044,0,0,1-1.044,1.044H9.228A1.044,1.044,0,0,1,8.183,22.3v-.911h.965a1.711,1.711,0,0,0,0-3.418H8.183V16.053h.965a1.711,1.711,0,0,0,0-3.417H8.183V10.713h.965a1.711,1.711,0,0,0,0-3.419H8.183V5.373h.965a1.671,1.671,0,0,0,1.626-1.709A1.67,1.67,0,0,0,9.148,1.955H8.183V1.045A1.044,1.044,0,0,1,9.228,0H26.947A1.043,1.043,0,0,1,27.99,1.045ZM16.15,8.867c.025-.31.223-.645.477-.61a7.037,7.037,0,0,1,1.247.695c.693.356,1.81-2.4,1.292-2.727a9.026,9.026,0,0,0-1.212-.776,1.349,1.349,0,0,0-.236-.047c-1.808-.4-3.652,1.155-3.84,3.5-.074.9-.115,1.8-.132,2.695h0c0,.025,0,.048,0,.074s0,.047,0,.074h0c.016.9.058,1.8.132,2.695.188,2.346,2.033,3.906,3.84,3.5a1.29,1.29,0,0,0,.236-.046,8.891,8.891,0,0,0,1.212-.777c.518-.324-.6-3.08-1.292-2.727a6.955,6.955,0,0,1-1.247.7c-.253.035-.452-.3-.477-.611-.066-.818-.007-1.864,0-2.732h0V11.6h0C16.142,10.732,16.083,9.686,16.15,8.867Zm4.5,5.158a3.328,3.328,0,0,0,0-4.7l-.69.691a2.348,2.348,0,0,1,0,3.322Zm1.232,1.229a5.069,5.069,0,0,0,0-7.16l-.69.69a4.092,4.092,0,0,1,0,5.782ZM23.069,6.9l-.69.689a5.781,5.781,0,0,1,0,8.163l.69.69A6.757,6.757,0,0,0,23.069,6.9Z" transform="translate(-6.274 0)" fill="#ffce78"/>
    </g>
  </g>
</svg>
