<svg xmlns="http://www.w3.org/2000/svg" width="26.667" height="20" viewBox="0 0 26.667 20">
  <g id="gmail" transform="translate(0 -64)">
    <rect id="Rectangle_391" data-name="Rectangle 391" width="20" height="20" transform="translate(3.333 64)" fill="#eceff1"/>
    <path id="Path_310" data-name="Path 310" d="M256,156.365l10,7.9v-15.59Z" transform="translate(-242.667 -80.262)" fill="#cfd8dc"/>
    <path id="Path_311" data-name="Path 311" d="M24.167,64h-.833l-10,7.9-10-7.9H2.5A2.5,2.5,0,0,0,0,66.5v15A2.5,2.5,0,0,0,2.5,84h.833V68.41l10,7.692,10-7.693V84h.833a2.5,2.5,0,0,0,2.5-2.5v-15A2.5,2.5,0,0,0,24.167,64Z" fill="#f44336"/>
  </g>
</svg>
