<svg xmlns="http://www.w3.org/2000/svg" width="29.07" height="29" viewBox="0 0 29.07 29"><g transform="translate(0 -0.545)"><g transform="translate(0 0.545)"><g transform="translate(0 0)"><circle cx="2.535" cy="2.535" r="2.535" transform="translate(12)"/><path d="M162.113,88.318h-1.929a3.515,3.515,0,0,0-3.448,3.581c0,.012,0,.024,0,.036v.541c0,.27.1.575.406.575h7.977c.3,0,.406-.3.406-.575v-.541A3.515,3.515,0,0,0,162.113,88.318Z" transform="translate(-146.595 -82.639)"/><path d="M47.551,122.25a.507.507,0,0,0,.507-.507,10.444,10.444,0,0,1,3.921-8.179.473.473,0,0,0,.068-.71.507.507,0,0,0-.71-.068,11.492,11.492,0,0,0-4.293,8.957A.507.507,0,0,0,47.551,122.25Z" transform="translate(-44.001 -105.418)"/><path d="M170.6,406.13h0a10.681,10.681,0,0,1-6.658,0,.507.507,0,0,0-.639.326l0,.012a.541.541,0,0,0,.338.642,11.732,11.732,0,0,0,3.617.575,11.391,11.391,0,0,0,3.684-.608.507.507,0,0,0-.338-.946Z" transform="translate(-152.723 -379.867)"/><path d="M314.932,107.362l.006,0a10.511,10.511,0,0,1,4.428,8.551.507.507,0,0,0,1.014,0,11.559,11.559,0,0,0-4.867-9.4.541.541,0,0,0-.71.135A.507.507,0,0,0,314.932,107.362Z" transform="translate(-294.353 -99.593)"/><circle cx="2.535" cy="2.535" r="2.535" transform="translate(1.86 18.59)"/><path d="M5.378,375.665H3.449A3.515,3.515,0,0,0,0,379.245c0,.012,0,.024,0,.036v.541c0,.27.1.575.406.575H8.384c.3,0,.406-.3.406-.575v-.541A3.515,3.515,0,0,0,5.378,375.665Z" transform="translate(0 -351.396)"/><circle cx="2.535" cy="2.535" r="2.535" transform="translate(22.14 18.59)"/><path d="M318.847,375.665h-1.929a3.515,3.515,0,0,0-3.448,3.581q0,.018,0,.036v.541c0,.27.1.575.406.575h7.977c.3,0,.406-.3.406-.575v-.541A3.515,3.515,0,0,0,318.847,375.665Z" transform="translate(-293.19 -351.396)"/></g></g></g></svg>