<svg id="stamp" xmlns="http://www.w3.org/2000/svg" width="20" height="20" viewBox="0 0 20 20">
  <path id="Path_319" data-name="Path 319" d="M15.313.586V19.414a.58.58,0,0,1-.586.586H.586A.58.58,0,0,1,0,19.414V4.688l3.855-.727L4.688,0H14.727a.58.58,0,0,1,.586.586Zm0,0" transform="translate(0 0)" fill="#fdf6c8"/>
  <path id="Path_320" data-name="Path 320" d="M203.656.586V19.414a.58.58,0,0,1-.586.586H196V2.367L196.023,0h7.047a.58.58,0,0,1,.586.586Zm0,0" transform="translate(-188.344 0)" fill="#ffde8d"/>
  <g id="Group_1196" data-name="Group 1196" transform="translate(2.344 2.367)">
    <path id="Path_321" data-name="Path 321" d="M154.516,65.848a1.764,1.764,0,0,1-1.172,1.652v.645a.586.586,0,0,1-1.172,0v-.656a1.767,1.767,0,0,1-.937-.762.578.578,0,0,1,.211-.8.592.592,0,0,1,.809.211.591.591,0,0,0,.5.293.586.586,0,0,0,0-1.172,1.755,1.755,0,0,1-.586-3.41v-.668a.586.586,0,1,1,1.172,0v.68a1.767,1.767,0,0,1,.938.762.578.578,0,0,1-.211.8.592.592,0,0,1-.809-.211.591.591,0,0,0-.5-.293.586.586,0,0,0,0,1.172A1.755,1.755,0,0,1,154.516,65.848Zm0,0" transform="translate(-147.445 -60.598)" fill="#ff9f00"/>
    <path id="Path_322" data-name="Path 322" d="M67.07,302.586a.58.58,0,0,1-.586.586h-5.9a.586.586,0,0,1,0-1.172h5.9A.58.58,0,0,1,67.07,302.586Zm0,0" transform="translate(-60 -292.57)" fill="#ff9f00"/>
    <path id="Path_323" data-name="Path 323" d="M65.313,363.172H60.586a.586.586,0,0,1,0-1.172h4.727a.586.586,0,0,1,0,1.172Zm0,0" transform="translate(-60 -350.226)" fill="#ff9f00"/>
    <path id="Path_324" data-name="Path 324" d="M65.313,423.172H60.586a.586.586,0,0,1,0-1.172h4.727a.586.586,0,0,1,0,1.172Zm0,0" transform="translate(-60 -407.883)" fill="#ff9f00"/>
  </g>
  <path id="Path_325" data-name="Path 325" d="M4.1,4.688A.58.58,0,0,0,4.688,4.1V0L0,4.688Zm0,0" fill="#ffe470"/>
  <path id="Path_326" data-name="Path 326" d="M306.8,150.656a2.926,2.926,0,0,0-2.484-.586,2.936,2.936,0,0,0-2.1,3.926,11.539,11.539,0,0,1,.973,4.144v.727a.58.58,0,0,0,.586.586h2.344a.655.655,0,0,0,.586-.668,10.337,10.337,0,0,1,.867-4.566,2.859,2.859,0,0,0,.3-1.289,2.938,2.938,0,0,0-1.078-2.273Zm0,0" transform="translate(-290.226 -144.141)" fill="#ff3980"/>
  <path id="Path_327" data-name="Path 327" d="M378.172,159.453H377V150a2.885,2.885,0,0,1,1.852.656,2.937,2.937,0,0,1,1.078,2.273,2.858,2.858,0,0,1-.3,1.289,10.337,10.337,0,0,0-.867,4.566.655.655,0,0,1-.586.668Zm0,0" transform="translate(-362.273 -144.141)" fill="#e02670"/>
  <path id="Path_328" data-name="Path 328" d="M279.617,422h-7.031a.58.58,0,0,0-.586.586v2.344a.58.58,0,0,0,.586.586h7.031a.58.58,0,0,0,.586-.586v-2.344A.58.58,0,0,0,279.617,422Zm0,0" transform="translate(-261.375 -405.516)" fill="#4a696f"/>
  <path id="Path_329" data-name="Path 329" d="M381.1,422.586v2.344a.58.58,0,0,1-.586.586H377V422h3.516A.58.58,0,0,1,381.1,422.586Zm0,0" transform="translate(-362.273 -405.516)" fill="#3e5959"/>
  <path id="Path_330" data-name="Path 330" d="M250.789,362h-7.031A1.755,1.755,0,0,0,242,363.758v1.172a.58.58,0,0,0,.586.586h9.375a.58.58,0,0,0,.586-.586v-1.172A1.755,1.755,0,0,0,250.789,362Zm0,0" transform="translate(-232.547 -347.859)" fill="#ff5b5b"/>
  <path id="Path_331" data-name="Path 331" d="M382.273,363.758v1.172a.58.58,0,0,1-.586.586H377V362h3.516A1.755,1.755,0,0,1,382.273,363.758Zm0,0" transform="translate(-362.273 -347.859)" fill="#ff3980"/>
  <path id="Path_332" data-name="Path 332" d="M197.758,151.758a1.764,1.764,0,0,1-1.172,1.652v.645a.58.58,0,0,1-.586.586v-2.3a.586.586,0,0,0,0-1.172V150A1.755,1.755,0,0,1,197.758,151.758Zm0,0" transform="translate(-188.344 -144.141)" fill="#ff7816"/>
  <path id="Path_333" data-name="Path 333" d="M196,62.918V60.6a.58.58,0,0,1,.586.586v.68a1.767,1.767,0,0,1,.938.762.578.578,0,0,1-.211.8.592.592,0,0,1-.809-.211A.591.591,0,0,0,196,62.918Zm0,0" transform="translate(-188.344 -58.231)" fill="#ff7816"/>
</svg>
