<svg xmlns="http://www.w3.org/2000/svg" viewBox="0 0 7.583 14">
  <g id="Group_15" data-name="Group 15" transform="translate(-5 -1028.36)">
    <path id="Path_3" data-name="Path 3" d="M5.583,1028.36,5,1029.527H6.75a2.9,2.9,0,0,1,2.529,1.286,2.52,2.52,0,0,1,.37,1.047H5.583L5,1033.027H9.5a2.576,2.576,0,0,1-.205.432,2.823,2.823,0,0,1-2.47,1.318H5v1.167c1.423,2.09,2.838,4.281,4.242,6.417h1.323l-4.218-6.416c2.153,0,3.279-.777,3.95-1.88a3.679,3.679,0,0,0,.426-1.038H12l.583-1.167H10.814a3.674,3.674,0,0,0-.547-1.668,3.8,3.8,0,0,0-.541-.665H12l.583-1.167Z" transform="translate(0 0)"/>
  </g>
</svg>
