<svg xmlns="http://www.w3.org/2000/svg" width="16.403" height="20" viewBox="0 0 16.403 20">
  <g id="invoice" transform="translate(-0.23)">
    <path id="Path_122" data-name="Path 122" d="M8.357,4.064A4.064,4.064,0,1,0,4.294,8.127,4.064,4.064,0,0,0,8.357,4.064ZM2.392,5.89a.359.359,0,0,1-.446-.057l-.767-.8a.358.358,0,0,1,.516-.5l.567.588L4.627,3.674l-1.2-.455a.358.358,0,0,1,.255-.67L5.4,3.2l1.565-.963a.358.358,0,1,1,.375.611Zm0,0" transform="translate(0)" fill="#eee"/>
    <path id="Path_123" data-name="Path 123" d="M307.4,100.328h2.18l-2.18-2.34Zm0,0" transform="translate(-293.405 -93.598)" fill="#eee"/>
    <path id="Path_124" data-name="Path 124" d="M104.175,89.433v-3.2h-4.2c0,.09.007.137.007.21a4.77,4.77,0,0,1-4.582,4.766v10.961l1.074-.6a.355.355,0,0,1,.347,0l1.434.8,1.434-.8a.359.359,0,0,1,.349,0l1.434.8,1.434-.8a.358.358,0,0,1,.349,0l1.433.8,1.433-.8a.354.354,0,0,1,.347,0l1.072.6V89.814h-3A.381.381,0,0,1,104.175,89.433Zm-6.156,1.636h3.761a.358.358,0,0,1,0,.717H98.019a.358.358,0,1,1,0-.717Zm6.9,7.436h-6.9a.358.358,0,1,1,0-.717h6.9a.358.358,0,1,1,0,.717Zm0-2.24h-6.9a.358.358,0,1,1,0-.717h6.9a.358.358,0,1,1,0,.717Zm.358-2.6a.358.358,0,0,1-.358.358h-6.9a.358.358,0,1,1,0-.717h6.9A.358.358,0,0,1,105.274,93.667Zm0,0" transform="translate(-90.902 -82.368)" fill="#eee"/>
  </g>
</svg>
