<svg xmlns="http://www.w3.org/2000/svg" width="25.845" height="14" viewBox="0 0 25.845 14">
  <path id="leads_icon" d="M8.615,10.385H5.385V7.154H3.231v3.231H0v2.154H3.231V15.77H5.385V12.538h3.23Zm10.769,1.077a3.231,3.231,0,1,0-.98-6.311,5.314,5.314,0,0,1,.969,3.08,5.418,5.418,0,0,1-.969,3.08,3.22,3.22,0,0,0,.981.151Zm-5.385,0a3.217,3.217,0,1,0-2.288-.942A3.231,3.231,0,0,0,14,11.462Zm7.129,2.326a3.985,3.985,0,0,1,1.486,3.058V19h3.231V16.846c0-1.658-2.551-2.681-4.716-3.058ZM14,13.615c-2.154,0-6.462,1.077-6.462,3.231V19H20.462V16.846C20.462,14.692,16.154,13.615,14,13.615Z" transform="translate(0 -5)" fill="#ffce78"/>
</svg>
