<svg xmlns="http://www.w3.org/2000/svg" width="25.846" height="14" viewBox="0 0 25.846 14">
  <path id="ic_group_add_24px" d="M8.615,10.385H5.385V7.154H3.231v3.231H0v2.154H3.231v3.231H5.385V12.538H8.615Zm10.769,1.077a3.231,3.231,0,1,0-.98-6.311,5.314,5.314,0,0,1,.969,3.08,5.418,5.418,0,0,1-.969,3.08A3.22,3.22,0,0,0,19.385,11.462Zm-5.385,0a3.231,3.231,0,1,0-3.231-3.231A3.217,3.217,0,0,0,14,11.462Zm7.129,2.326a3.985,3.985,0,0,1,1.486,3.058V19h3.231V16.846C25.846,15.188,23.294,14.165,21.129,13.788ZM14,13.615c-2.154,0-6.462,1.077-6.462,3.231V19H20.462V16.846C20.462,14.692,16.154,13.615,14,13.615Z" transform="translate(0 -5)" fill="#eee"/>
</svg>
