<svg id="communications" xmlns="http://www.w3.org/2000/svg" width="30" height="30" viewBox="0 0 30 30">
  <path id="Path_1" data-name="Path 1" d="M57,57.874a.876.876,0,0,1-.621-.257l-4.905-4.905a.879.879,0,1,1,1.243-1.243l4.905,4.905a.879.879,0,0,1-.621,1.5Zm0,0" transform="translate(-48.211 -48.211)" fill="#beebfa"/>
  <path id="Path_2" data-name="Path 2" d="M347.328,57.616a.879.879,0,0,1,0-1.243l4.905-4.905a.879.879,0,0,1,1.243,1.243l-4.905,4.905A.879.879,0,0,1,347.328,57.616Zm0,0" transform="translate(-326.734 -48.21)" fill="#7ed8f6"/>
  <path id="Path_3" data-name="Path 3" d="M352.854,353.733a.876.876,0,0,1-.621-.258l-4.905-4.905a.879.879,0,1,1,1.243-1.243l4.905,4.905a.879.879,0,0,1-.621,1.5Zm0,0" transform="translate(-326.734 -326.734)" fill="#7ed8f6"/>
  <g id="Group_1" data-name="Group 1">
    <path id="Path_4" data-name="Path 4" d="M52.792,353.76a.876.876,0,0,1-.621-.258c-.343-.343-.343-.9.527-1.229l4.905-4.906c-.184-.357.372-.357.715-.013a.879.879,0,0,1,0,1.243L53.414,353.5A.876.876,0,0,1,52.792,353.76Zm0,0" transform="translate(-48.913 -326.761)" fill="#beebfa"/>
    <path id="Path_5" data-name="Path 5" d="M2.637,5.273A2.637,2.637,0,1,1,5.273,2.637,2.64,2.64,0,0,1,2.637,5.273Zm0,0" fill="#beebfa"/>
    <path id="Path_6" data-name="Path 6" d="M2.637,427.273a2.637,2.637,0,1,1,2.637-2.637A2.64,2.64,0,0,1,2.637,427.273Zm0,0" transform="translate(0 -397.273)" fill="#beebfa"/>
  </g>
  <path id="Path_7" data-name="Path 7" d="M424.637,5.273a2.637,2.637,0,1,1,2.637-2.637A2.64,2.64,0,0,1,424.637,5.273Zm0,0" transform="translate(-397.273)" fill="#7ed8f6"/>
  <path id="Path_8" data-name="Path 8" d="M424.637,427.273a2.637,2.637,0,1,1,2.637-2.637A2.64,2.64,0,0,1,424.637,427.273Zm0,0" transform="translate(-397.273 -397.273)" fill="#7ed8f6"/>
  <path id="Path_9" data-name="Path 9" d="M111.132,99.789a9.654,9.654,0,0,0-19.23,0l.58.879-.58.879a9.654,9.654,0,0,0,19.23,0l-.826-.879Zm0,0" transform="translate(-86.517 -85.668)" fill="#beebfa"/>
  <path id="Path_10" data-name="Path 10" d="M264.789,100.668l.826.879A9.669,9.669,0,0,1,256,110.336V91a9.669,9.669,0,0,1,9.615,8.789Zm0,0" transform="translate(-241 -85.668)" fill="#7ed8f6"/>
  <path id="Path_11" data-name="Path 11" d="M136.82,128.91a7.91,7.91,0,1,1-7.91-7.91A7.922,7.922,0,0,1,136.82,128.91Zm0,0" transform="translate(-113.91 -113.91)" fill="#5696e5"/>
  <path id="Path_12" data-name="Path 12" d="M263.91,128.91a7.922,7.922,0,0,1-7.91,7.91V121A7.922,7.922,0,0,1,263.91,128.91Zm0,0" transform="translate(-241 -113.91)" fill="#1862bf"/>
  <path id="Path_13" data-name="Path 13" d="M110.283,99.789h-5.238c-.176-4.412-1.7-8.789-4.377-8.789s-4.2,4.377-4.377,8.789H91.053a7.331,7.331,0,0,0,0,1.758h5.238c.176,4.412,1.7,8.789,4.377,8.789s4.2-4.377,4.377-8.789h5.238a7.333,7.333,0,0,0,0-1.758Zm-9.615,8.789c-1,0-2.443-2.707-2.619-7.031h5.238C103.112,105.871,101.67,108.578,100.668,108.578Zm-2.619-8.789c.176-4.324,1.617-7.031,2.619-7.031s2.443,2.707,2.619,7.031Zm0,0" transform="translate(-85.668 -85.668)" fill="#beebfa"/>
  <path id="Path_14" data-name="Path 14" d="M265.668,100.668a7.139,7.139,0,0,1-.053.879h-5.238c-.176,4.412-1.7,8.789-4.377,8.789v-1.758c1,0,2.443-2.707,2.619-7.031H256V99.789h2.619c-.176-4.324-1.617-7.031-2.619-7.031V91c2.672,0,4.2,4.377,4.377,8.789h5.238A7.136,7.136,0,0,1,265.668,100.668Zm0,0" transform="translate(-241 -85.668)" fill="#7ed8f6"/>
</svg>
