<svg xmlns="http://www.w3.org/2000/svg" width="18.127" height="20" viewBox="0 0 18.127 20">
  <g id="Group_1557" data-name="Group 1557" transform="translate(-20.001 -608)">
    <path id="Path_2" data-name="Path 2" d="M48.876,116.958c-2.081-.214-4.1-2.466-4.607-2.779a2.442,2.442,0,0,0-1.032-.428,1.848,1.848,0,0,0-.51-.023,2.042,2.042,0,0,0-1.177.452,3.735,3.735,0,0,0-.411.377,17.744,17.744,0,0,0-3.536,5.2.9.9,0,0,0,.184.953l-1.113,1.981-1.571-.88a.389.389,0,0,0-.529.147L31.61,127.2a.389.389,0,0,0,.149.529l1.186.667a.89.89,0,1,0,1.478-.114l1.619-2.841,1.135-2.021,1.406-2.437a.9.9,0,0,0,.7-.558,12.7,12.7,0,0,1,1.621-2.787l.283,3.247a1.571,1.571,0,0,0,.426.953c-.725,1.321-2.688,4.932-3.4,6.162a1.15,1.15,0,0,0,1.994,1.149c.66-1.143,2.379-4.612,3.133-5.92a52.567,52.567,0,0,1,2.942,5.807,1.151,1.151,0,0,0,2.1-.93,51.532,51.532,0,0,0-3.3-6.437,1.6,1.6,0,0,0,.362-1.155l-.267-3.075a6.291,6.291,0,0,0,3.511,1.318.878.878,0,0,0,.094,0,.9.9,0,0,0,.091-1.8ZM33.709,129.189a.324.324,0,1,1,.324-.324.324.324,0,0,1-.324.324Z" transform="translate(-11.559 498.28)" fill="#ff7474"/>
    <ellipse id="Ellipse_1" data-name="Ellipse 1" cx="1.927" cy="1.794" rx="1.927" ry="1.794" transform="translate(30.594 608)" fill="#ff7474"/>
  </g>
</svg>
