<svg xmlns="http://www.w3.org/2000/svg" width="22.037" height="20" viewBox="0 0 22.037 20">
  <g id="map-location" transform="translate(0 -2.75)">
    <path id="Path_360" data-name="Path 360" d="M21.789,24.76H4.755L3.4,35.5h19.54Z" transform="translate(-2.142 -13.86)" fill="#fff"/>
    <path id="Path_361" data-name="Path 361" d="M19.647,22.871,20.8,33.61H1.26L2.613,22.871H19.647m1-1.111H1.633l-.123.972L.157,33.471,0,34.721H22.037L21.9,33.491,20.751,22.752l-.106-.992Z" transform="translate(0 -11.971)" fill="#556080"/>
    <path id="Path_362" data-name="Path 362" d="M10.712,36.377a2.366,2.366,0,0,1-.285-.017,1.76,1.76,0,0,1-.242-.046.37.37,0,1,1,.185-.717,1.2,1.2,0,0,0,.147.028,1.794,1.794,0,0,0,.45-.006.37.37,0,0,1,.093.735A2.684,2.684,0,0,1,10.712,36.377Zm1.722-.429a.37.37,0,0,1-.134-.716c.219-.085.44-.179.657-.281a.37.37,0,0,1,.315.67c-.233.109-.47.21-.7.3A.352.352,0,0,1,12.434,35.949Zm-3.091-.641a.371.371,0,0,1-.368-.333,2.172,2.172,0,0,1-.01-.219c0-.043,0-.086,0-.128a2.449,2.449,0,0,1,.083-.521.37.37,0,1,1,.715.193,1.7,1.7,0,0,0-.058.364c0,.03,0,.061,0,.092a1.34,1.34,0,0,0,.007.144.371.371,0,0,1-.331.406Zm5.065-.37a.37.37,0,0,1-.2-.681c.2-.128.395-.267.585-.41a.37.37,0,1,1,.446.591c-.2.154-.415.3-.628.44A.37.37,0,0,1,14.409,34.937Zm1.762-1.352a.37.37,0,0,1-.218-.67c.077-.056.156-.111.237-.163a4.69,4.69,0,0,1,.444-.255.37.37,0,0,1,.333.662,4,4,0,0,0-.374.214q-.1.068-.2.141A.37.37,0,0,1,16.171,33.586Zm-5.909-.175a.37.37,0,0,1-.177-.7,1.658,1.658,0,0,1,.609-.193,1.349,1.349,0,0,1,.33,0,.37.37,0,1,1-.1.734.6.6,0,0,0-.15,0,.913.913,0,0,0-.338.107A.37.37,0,0,1,10.263,33.41Zm7.937-.686a.37.37,0,0,1-.077-.732c.238-.051.494-.093.762-.127a.365.365,0,0,1,.413.322.37.37,0,0,1-.322.413c-.246.031-.481.07-.7.116A.352.352,0,0,1,18.2,32.725Zm2.207-.228a.37.37,0,0,1-.015-.74l.738-.03a.365.365,0,0,1,.387.353.37.37,0,0,1-.353.387l-.741.03Zm2.214-.164a.37.37,0,0,1-.075-.733,1.307,1.307,0,0,0,.5-.194.384.384,0,0,1,.532.055.357.357,0,0,1-.052.51c-.02.016-.041.031-.063.045a2.022,2.022,0,0,1-.767.309A.369.369,0,0,1,22.621,32.332Zm1.507-1.492a.377.377,0,0,1-.11-.017.37.37,0,0,1-.244-.463.819.819,0,0,0,.036-.187V30.13a.738.738,0,0,0-.048-.257.37.37,0,0,1,.694-.257,1.476,1.476,0,0,1,.094.515c0,.031,0,.062,0,.093a1.553,1.553,0,0,1-.068.357A.37.37,0,0,1,24.127,30.84Zm-1.874-1.521a.37.37,0,0,1-.1-.727,2.192,2.192,0,0,1,.884-.067.37.37,0,0,1-.1.734,1.463,1.463,0,0,0-.583.045A.351.351,0,0,1,22.254,29.319Z" transform="translate(-5.645 -16.219)" fill="#ebba16"/>
    <path id="Path_363" data-name="Path 363" d="M27.125,6.15c-.194-1.481-.968-3.4-4.007-3.4S19.3,4.669,19.11,6.15a7.262,7.262,0,0,0,.122,2.437A16.334,16.334,0,0,0,23,16.207a.16.16,0,0,0,.233,0A16.334,16.334,0,0,0,27,8.587,7.243,7.243,0,0,0,27.125,6.15ZM23.117,9.016a2.35,2.35,0,1,1,2.35-2.35A2.35,2.35,0,0,1,23.117,9.016Z" transform="translate(-12)" fill="#dd352e"/>
    <g id="Group_1447" data-name="Group 1447" transform="translate(8.397 3.946)">
      <path id="Path_364" data-name="Path 364" d="M25.4,5.981a2.72,2.72,0,1,0,2.72,2.72A2.723,2.723,0,0,0,25.4,5.981Zm0,4.7a1.979,1.979,0,1,1,1.98-1.98A1.982,1.982,0,0,1,25.4,10.681Z" transform="translate(-22.677 -5.981)" fill="#b02721"/>
    </g>
  </g>
</svg>
