<svg xmlns="http://www.w3.org/2000/svg" width="31.21" height="30" viewBox="0 0 31.21 30"><g transform="translate(0 -0.911)"><g transform="translate(0 0.911)"><path d="M13.938,12.924l-1.9-1.794A2.782,2.782,0,0,0,12.4,9.783a2.835,2.835,0,1,0-1.327,2.382l1.9,1.792A6.448,6.448,0,0,1,13.938,12.924Z" transform="translate(-2.272 -2.946)"/><path d="M29.045,10.665,31.568,6.42a2.784,2.784,0,1,0-1.224-.715L27.829,9.939A6.3,6.3,0,0,1,29.045,10.665Z" transform="translate(-9.349 -0.911)"/><path d="M39.586,20.952a2.813,2.813,0,0,0-2.635,1.843l-3.5-.346c0,.027,0,.052,0,.078a6.454,6.454,0,0,1-.141,1.334l3.5.346a2.812,2.812,0,1,0,2.774-3.254Z" transform="translate(-11.19 -7.644)"/><path d="M26.729,35.892l-.784-3.424a6.416,6.416,0,0,1-1.383.319l.785,3.424a2.807,2.807,0,1,0,1.381-.32Z" transform="translate(-8.005 -11.513)"/><path d="M9.534,25.37,5.171,26.832a2.811,2.811,0,1,0,.461,1.536c0-.065-.014-.125-.019-.189l4.377-1.466A6.43,6.43,0,0,1,9.534,25.37Z" transform="translate(0 -9.128)"/><circle cx="4.828" cy="4.828" r="4.828" transform="translate(10.996 10.054)"/></g></g></svg>