<svg xmlns="http://www.w3.org/2000/svg" width="17.596" height="20" viewBox="0 0 17.596 20">
  <g id="delivery-packages-on-a-trolley" transform="translate(-36.787 0)">
    <path id="Path_118" data-name="Path 118" d="M36.9,3.45A2.16,2.16,0,0,1,41,2.1l4.245,12.866a2.837,2.837,0,0,0-1.236-.047L39.9,2.46a1,1,0,0,0-1.9.627.58.58,0,1,1-1.1.363ZM53.621,13.543l-6.955,2.295a2.841,2.841,0,0,1,.567.99c0,.013.007.027.011.04l6.741-2.224a.58.58,0,1,0-.363-1.1Zm-6.939,3.466a2.277,2.277,0,1,1-2.876-1.449A2.277,2.277,0,0,1,46.682,17.009Zm-1.081.357a1.139,1.139,0,1,0-.725,1.438A1.139,1.139,0,0,0,45.6,17.366Zm6.262-12.55,2.361,7.157a.29.29,0,0,1-.184.366l-7.432,2.452a.29.29,0,0,1-.366-.184L43.881,7.45a.29.29,0,0,1,.184-.366L51.5,4.631A.29.29,0,0,1,51.863,4.816ZM50.88,8.973,48.349,7.581l-1.2,2.625.8.367.521-1.136.941,2.851.9-.3-.94-2.85,1.094.6ZM48.672,4.7,47.162.128A.185.185,0,0,0,46.928.01L45.634.437l-.006.012L45.617.443l-.683.225.562,1.7-.77.254-.562-1.7-.683.225-.005.011-.012-.006-1.286.424a.185.185,0,0,0-.118.234l1.51,4.576a.185.185,0,0,0,.234.118l4.752-1.568A.185.185,0,0,0,48.672,4.7Z" transform="translate(0 0)" fill="#eee"/>
  </g>
</svg>
