<svg xmlns="http://www.w3.org/2000/svg" width="17.596" height="19.999" viewBox="0 0 17.596 19.999">
  <path id="order_icon" d="M36.9,3.45A2.16,2.16,0,0,1,41,2.1l4.245,12.866a2.837,2.837,0,0,0-1.236-.047L39.9,2.46a1,1,0,1,0-1.9.627.58.58,0,1,1-1.1.363ZM53.621,13.543l-6.955,2.3a2.841,2.841,0,0,1,.567.99.149.149,0,0,0,.011.04l6.741-2.224a.58.58,0,1,0-.363-1.1Zm-6.939,3.466a2.277,2.277,0,1,1-2.876-1.449,2.277,2.277,0,0,1,2.876,1.449Zm-1.081.357a1.139,1.139,0,1,0-.725,1.438,1.139,1.139,0,0,0,.725-1.438Zm6.262-12.55,2.361,7.157a.29.29,0,0,1-.184.366l-7.432,2.452a.29.29,0,0,1-.366-.184L43.881,7.45a.29.29,0,0,1,.184-.366L51.5,4.631a.29.29,0,0,1,.363.185ZM50.88,8.973,48.349,7.581l-1.2,2.625.8.367.521-1.136.941,2.851.9-.3-.94-2.85,1.094.6ZM48.672,4.7,47.162.128A.185.185,0,0,0,46.928.01L45.634.437l-.006.012L45.617.443l-.683.225.562,1.7-.77.254-.562-1.7-.683.225-.005.011-.012-.006-1.286.424a.185.185,0,0,0-.118.234l1.51,4.576A.185.185,0,0,0,43.8,6.5l4.752-1.568a.185.185,0,0,0,.116-.236Z" transform="translate(-36.817 -0.001)" fill="#ffce78"/>
</svg>
