<svg xmlns="http://www.w3.org/2000/svg" width="15.912" height="20" viewBox="0 0 15.912 20">
  <g id="Group_1557" data-name="Group 1557" transform="translate(-42 -461)">
    <path id="Path_119" data-name="Path 119" d="M23.141,5.155a.268.268,0,0,0,.111-.512L13.023.108a1.235,1.235,0,0,0-1.633.626L7.808,8.765A1.235,1.235,0,0,0,8.434,10.4l2.063.892a.393.393,0,0,0,.553-.356V7.525a2.367,2.367,0,0,1,2.366-2.366h9.725Z" transform="translate(34.3 461)" fill="#ff7474"/>
    <path id="Path_120" data-name="Path 120" d="M130.294,153.136H117.888a1.252,1.252,0,0,0-1.252,1.252v8.763a1.252,1.252,0,0,0,1.252,1.252h1.666a4.549,4.549,0,0,1-.061-.749,4.739,4.739,0,0,1,.078-.839h-1.343v-4.2h11.731v4.191h-1.347a4.737,4.737,0,0,1,.078.839,4.549,4.549,0,0,1-.061.749h1.666a1.252,1.252,0,0,0,1.252-1.252v-8.759A1.252,1.252,0,0,0,130.294,153.136Zm-.336,2.9H118.228v-1.314h11.731Z" transform="translate(-73.635 314.132)" fill="#ff7474"/>
    <path id="Path_121" data-name="Path 121" d="M223.453,331.436a3.217,3.217,0,1,0,3.217,3.217A3.218,3.218,0,0,0,223.453,331.436Zm.925,4.486a1.018,1.018,0,0,1-.536.344.15.15,0,0,0-.131.172c0,.094,0,.188,0,.286a.116.116,0,0,1-.127.131q-.153.006-.307,0c-.09,0-.131-.053-.131-.139v-.209c0-.151-.008-.16-.156-.184a1.928,1.928,0,0,1-.544-.156c-.135-.065-.151-.1-.111-.241.029-.106.057-.213.09-.315.037-.123.07-.135.184-.078a1.757,1.757,0,0,0,.606.18.736.736,0,0,0,.4-.053.307.307,0,0,0,.074-.54.831.831,0,0,0-.225-.131,4.663,4.663,0,0,1-.618-.278.87.87,0,0,1-.5-.839.922.922,0,0,1,.675-.855c.164-.061.168-.057.168-.229v-.176c0-.131.025-.151.156-.156h.119c.278,0,.278,0,.278.278,0,.2,0,.2.2.225a1.787,1.787,0,0,1,.43.127.124.124,0,0,1,.082.168c-.033.119-.065.242-.106.356s-.074.127-.18.078a1.352,1.352,0,0,0-.679-.135.543.543,0,0,0-.18.037.258.258,0,0,0-.065.458,1.307,1.307,0,0,0,.295.168,4.563,4.563,0,0,1,.54.246A.963.963,0,0,1,224.378,335.922Z" transform="translate(-173.236 143.13)" fill="#ff7474"/>
  </g>
</svg>
