<svg xmlns="http://www.w3.org/2000/svg" width="20.329" height="20" viewBox="0 0 20.329 20">
  <g id="phone" transform="translate(0 -0.487)">
    <g id="Group_1194" data-name="Group 1194" transform="translate(0 2.208)">
      <path id="Path_312" data-name="Path 312" d="M18.441,20.253c-.643-1.215-3.015-2.606-3.015-2.606-.537-.306-1.184-.34-1.491.205a12.234,12.234,0,0,1-.967,1.057,1.8,1.8,0,0,1-2.562-.254L8.46,16.71,6.514,14.764A1.8,1.8,0,0,1,6.26,12.2a12.234,12.234,0,0,1,1.057-.967c.545-.306.511-.954.205-1.491,0,0-1.39-2.372-2.606-3.015a1.332,1.332,0,0,0-1.566.236l-.86.86c-2.726,2.726-1.384,5.8,1.342,8.53l2.492,2.492,2.492,2.492c2.726,2.726,5.8,4.069,8.53,1.342l.86-.86A1.334,1.334,0,0,0,18.441,20.253Z" transform="translate(-0.66 -6.233)" fill="#52c306"/>
      <path id="Path_313" data-name="Path 313" d="M13.437,23.846a4.846,4.846,0,0,1-1.092-.129,9.687,9.687,0,0,1-4.428-2.806L2.933,15.928c-3.386-3.386-3.85-6.5-1.343-9.009l.86-.86a1.663,1.663,0,0,1,1.964-.3C5.7,6.444,7.1,8.807,7.154,8.907a1.675,1.675,0,0,1,.221,1.264,1.127,1.127,0,0,1-.524.676,11.234,11.234,0,0,0-.972.879,1.466,1.466,0,0,0,.214,2.132l3.892,3.892a1.467,1.467,0,0,0,2.133.213A11.484,11.484,0,0,0,13,16.993a1.127,1.127,0,0,1,.676-.524,1.669,1.669,0,0,1,1.261.219c.1.061,2.467,1.456,3.147,2.742h0a1.663,1.663,0,0,1-.3,1.964l-.86.86A4.87,4.87,0,0,1,13.437,23.846ZM3.632,6.246a.99.99,0,0,0-.7.292l-.86.86C-.155,9.623.3,12.332,3.413,15.448L8.4,20.432c3.116,3.117,5.825,3.568,8.051,1.342l.86-.86a.99.99,0,0,0,.176-1.168h0A9.42,9.42,0,0,0,14.6,17.274a1.045,1.045,0,0,0-.74-.152.457.457,0,0,0-.283.232l-.035.051A10.017,10.017,0,0,1,12.5,18.525a2.138,2.138,0,0,1-2.992-.295L5.614,14.338a2.137,2.137,0,0,1-.3-2.992A10.026,10.026,0,0,1,6.44,10.308l.051-.035a.456.456,0,0,0,.232-.283,1.042,1.042,0,0,0-.155-.744A9.841,9.841,0,0,0,4.1,6.362,1,1,0,0,0,3.632,6.246Z" transform="translate(0 -5.567)" fill="#388f04"/>
    </g>
    <path id="Path_314" data-name="Path 314" d="M32.064,43.88l-.035,0a7.075,7.075,0,0,1-3.93-1.79.339.339,0,0,1,.475-.483A6.5,6.5,0,0,0,32.1,43.2a.339.339,0,0,1-.035.676Z" transform="translate(-18.51 -27.121)" fill="#388f04"/>
    <path id="Path_315" data-name="Path 315" d="M13.368,23.913a.337.337,0,0,1-.215-.078A6.472,6.472,0,0,1,11,19.882a.339.339,0,0,1,.675-.07,5.883,5.883,0,0,0,1.912,3.5.339.339,0,0,1-.217.6Z" transform="translate(-7.27 -12.576)" fill="#388f04"/>
    <g id="Group_1195" data-name="Group 1195" transform="translate(8.933 0.487)">
      <path id="Path_316" data-name="Path 316" d="M26.7.487a.339.339,0,0,0,0,.678A10.393,10.393,0,0,1,37.082,11.545a.339.339,0,0,0,.678,0A11.071,11.071,0,0,0,26.7.487Z" transform="translate(-26.362 -0.487)" fill="#efce4a"/>
      <path id="Path_317" data-name="Path 317" d="M26.7,7.517a.339.339,0,0,0,0,.678,8.007,8.007,0,0,1,8,8,.339.339,0,1,0,.678,0A8.686,8.686,0,0,0,26.7,7.517Z" transform="translate(-26.362 -5.135)" fill="#efce4a"/>
      <path id="Path_318" data-name="Path 318" d="M26.7,14.547a.339.339,0,0,0,0,.678,5.623,5.623,0,0,1,5.616,5.616.339.339,0,0,0,.678,0A6.3,6.3,0,0,0,26.7,14.547Z" transform="translate(-26.362 -9.783)" fill="#efce4a"/>
    </g>
  </g>
</svg>
