<svg xmlns="http://www.w3.org/2000/svg" width="22.008" height="20" viewBox="0 0 22.008 20">
  <g id="Group_1157" data-name="Group 1157" transform="translate(0 -16.594)">
    <path id="Path_299" data-name="Path 299" d="M87.324,252.148a1.362,1.362,0,0,0-.348.839v3.535h2.052v-5.587c0-.271-.155-.336-.348-.144Z" transform="translate(-81.715 -219.929)" fill="#002341"/>
    <path id="Path_300" data-name="Path 300" d="M236.353,196.751a1.365,1.365,0,0,0-.348.84v6.884h2.052v-8.938c0-.271-.155-.336-.348-.144Z" transform="translate(-221.731 -167.881)" fill="#002341"/>
    <path id="Path_301" data-name="Path 301" d="M286.011,149.322a1.36,1.36,0,0,0-.348.839v9.893h1.908v-11.8c0-.271-.156-.336-.348-.144Z" transform="translate(-268.385 -123.46)" fill="#002341"/>
    <path id="Path_302" data-name="Path 302" d="M186.732,246.413l-.2.205a1.163,1.163,0,0,0-.2.7v3.878h2.052v-5.93c0-.271-.156-.336-.348-.144Z" transform="translate(-175.055 -214.599)" fill="#002341"/>
    <path id="Path_303" data-name="Path 303" d="M137,249.284c-.192-.192-.348-.127-.348.144v5.678H138.7v-3.631a1.322,1.322,0,0,0-.33-.82l-.33-.328Z" transform="translate(-128.385 -218.513)" fill="#002341"/>
    <path id="Path_304" data-name="Path 304" d="M34.337,301.43l-.663.664a1.239,1.239,0,0,0-.347.737v.389h2.29v-2.582c0-.271-.155-.336-.348-.144Z" transform="translate(-31.311 -266.627)" fill="#002341"/>
    <path id="Path_305" data-name="Path 305" d="M21.66,24.706c.192.192.348.127.348-.144V17.537a1,1,0,0,0-.982-.943H14.042c-.271,0-.336.156-.144.348l2.484,2.486-1.013,1.009-4.7,4.7L8.183,22.656a.492.492,0,0,0-.7,0L.576,29.573a1.967,1.967,0,0,0,0,2.782l.048.049a1.966,1.966,0,0,0,2.781,0l4.43-4.433,2.486,2.483a.493.493,0,0,0,.7,0l8.194-8.2Z" transform="translate(0)" fill="#002341"/>
  </g>
</svg>
