<svg xmlns="http://www.w3.org/2000/svg" width="22.056" height="20" viewBox="0 0 22.056 20">
  <g id="warning" transform="translate(0 -22.643)">
    <path id="Path_135" data-name="Path 135" d="M21.615,37.685,13.888,24.3a3.288,3.288,0,0,0-5.711,0L.445,37.685A3.3,3.3,0,0,0,3.3,42.643H18.732A3.32,3.32,0,0,0,21.615,37.685ZM11.027,39.674a1.23,1.23,0,1,1,0-2.461,1.231,1.231,0,0,1,0,2.461Zm1.121-7.954c-.054.953-.114,1.9-.168,2.856-.027.309-.027.59-.027.894a.927.927,0,0,1-.926.894A.906.906,0,0,1,10.1,35.5c-.082-1.485-.168-2.942-.25-4.427-.027-.39-.054-.785-.086-1.176a1.337,1.337,0,0,1,.953-1.344,1.234,1.234,0,0,1,1.43.7,1.467,1.467,0,0,1,.114.617C12.235,30.489,12.176,31.107,12.149,31.72Z" transform="translate(0 0)" fill="#eee"/>
  </g>
</svg>
