<svg xmlns="http://www.w3.org/2000/svg" width="21.742" height="14" viewBox="0 0 21.742 14">
  <g id="Group_1556" data-name="Group 1556" transform="translate(-18 -664)">
    <path id="Path_14" data-name="Path 14" d="M.709,2.853,3.97-.3,6.144,1.874l-3.7,3.587L.6,5.353Z" transform="translate(21.314 670.497)" fill="#ff7474"/>
    <path id="Path_10" data-name="Path 10" d="M47.348,30.661,44.8,28.75H39.117l-2.29,2.29a2.47,2.47,0,0,0,3.239-.217.33.33,0,0,1,.233-.1h3.294a.33.33,0,0,1,.23.094l4.941,4.828a1.716,1.716,0,0,1,.506,1.125.329.329,0,0,1,.252-.118H51.17v-5.93H47.546A.329.329,0,0,1,47.348,30.661Z" transform="translate(-11.428 635.25)" fill="#ff7474"/>
    <path id="Path_11" data-name="Path 11" d="M22.781,31.385H19.753a3.125,3.125,0,0,1-4.318-.1.33.33,0,0,1,0-.466l2.073-2.073H15.119L12.571,30.66a.329.329,0,0,1-.2.066H8.75v5.93h1.712a1.966,1.966,0,0,0-.013.216,1.932,1.932,0,0,0,.053.442,1.911,1.911,0,0,0,1.424,1.427,1.923,1.923,0,0,0,2.53,2.531,1.925,1.925,0,0,0,3.232.914l.1-.1.466-.466.672.672a.99.99,0,0,0,1.4,0,1.148,1.148,0,0,0,.01-1.613l-.574-.574a1.907,1.907,0,0,0,.348-.583l.682.682.013.013.7.7a1.068,1.068,0,1,0,1.511-1.511l-2.306-2.306a.329.329,0,1,1,.466-.466L24.137,39.6a1.068,1.068,0,1,0,1.511-1.511l-2.965-2.965a.329.329,0,0,1,.466-.466l2.965,2.965a1.068,1.068,0,1,0,1.511-1.511Zm-11.023,6.1a.87.87,0,0,1,0-1.231l.659-.659a.871.871,0,1,1,1.232,1.231l-.44.44-.22.22A.872.872,0,0,1,11.758,37.487Zm2.549,2.635a.871.871,0,1,1-1.231-1.231l.659-.659.659-.659,1.318-1.318a.871.871,0,1,1,1.231,1.231Zm4.612-.659-1.977,1.977a.871.871,0,1,1-1.231-1.231l1.977-1.977a.871.871,0,1,1,1.231,1.231Z" transform="translate(9.25 635.251)" fill="#ff7474"/>
  </g>
</svg>
