<svg xmlns="http://www.w3.org/2000/svg" width="17.269" height="20" viewBox="0 0 17.269 20">
  <g id="Group_2" data-name="Group 2" transform="translate(-1113.813 -20)">
    <path id="Path_1" data-name="Path 1" d="M35.655,35.781l-.668-.118a.566.566,0,0,1-.4-.438,4.808,4.808,0,0,0-.128-.57.554.554,0,0,1,.172-.562l.558-.4a.87.87,0,0,0,.212-1.206l-.636-.91a.85.85,0,0,0-.562-.356.864.864,0,0,0-.648.144l-.558.4a.5.5,0,0,1-.364.062.536.536,0,0,1-.226-.094,5.527,5.527,0,0,0-.5-.326.558.558,0,0,1-.278-.524l.108-.662a.872.872,0,0,0-.708-1l-1.094-.2a.872.872,0,0,0-1,.708l-.114.678a.566.566,0,0,1-.438.4,4.8,4.8,0,0,0-.57.128.56.56,0,0,1-.242,0,.5.5,0,0,1-.32-.184l-.4-.558a.85.85,0,0,0-.562-.356.864.864,0,0,0-.648.144l-.9.626a.85.85,0,0,0-.356.562.864.864,0,0,0,.144.648l.4.558a.558.558,0,0,1-.028.6,4.354,4.354,0,0,0-.32.494.558.558,0,0,1-.524.278l-.668-.118a.872.872,0,0,0-1,.708l-.2,1.094a.874.874,0,0,0,.708,1l.668.118a.566.566,0,0,1,.4.438,4.808,4.808,0,0,0,.128.57.554.554,0,0,1-.172.562l-.558.4a.87.87,0,0,0-.222,1.214l.64.91A.85.85,0,0,0,24.36,41a.864.864,0,0,0,.648-.144l.558-.4a.5.5,0,0,1,.364-.062.588.588,0,0,1,.226.09q.24.17.492.316a.558.558,0,0,1,.278.52l-.118.668a.874.874,0,0,0,.708,1l1.094.2a.874.874,0,0,0,1-.708l.118-.668a.566.566,0,0,1,.438-.4,4.8,4.8,0,0,0,.58-.128.56.56,0,0,1,.242,0,.5.5,0,0,1,.32.184l.4.558a.85.85,0,0,0,.562.356.864.864,0,0,0,.648-.144l.91-.64a.87.87,0,0,0,.21-1.212l-.4-.558a.558.558,0,0,1,.028-.6q.17-.24.316-.492a.558.558,0,0,1,.524-.276l.668.118a.872.872,0,0,0,1-.708l.2-1.094A.886.886,0,0,0,35.655,35.781Zm-3.874.77a2.547,2.547,0,1,1-2.071-2.943,2.547,2.547,0,0,1,2.071,2.943Z" transform="translate(1094.703 -3.203)" fill="#002341"/>
    <path id="Path_2" data-name="Path 2" d="M12.993,5.055a.142.142,0,0,1,.11-.066l.336.058a.58.58,0,0,0,.672-.472l.1-.548a.58.58,0,0,0-.474-.664L13.4,3.305a.134.134,0,0,1-.082-.1,2.577,2.577,0,0,0-.066-.3.138.138,0,0,1,.03-.14l.282-.2a.582.582,0,0,0,.14-.8l-.32-.454a.6.6,0,0,0-.376-.238.574.574,0,0,0-.432.092l-.282.2a.116.116,0,0,1-.074,0,.226.226,0,0,1-.056,0A2.987,2.987,0,0,0,11.9,1.2a.142.142,0,0,1-.066-.11l.058-.336a.58.58,0,0,0-.472-.68l-.546-.106A.58.58,0,0,0,10.2.437l-.06.346a.134.134,0,0,1-.094.082,2.575,2.575,0,0,0-.3.066A.152.152,0,0,1,9.624.9l-.2-.282A.6.6,0,0,0,9.05.381a.574.574,0,0,0-.434.1L8.162.8a.582.582,0,0,0-.14.8l.2.282a.134.134,0,0,1-.012.126,2.987,2.987,0,0,0-.168.262.142.142,0,0,1-.11.066L7.6,2.276a.58.58,0,0,0-.678.488l-.1.538a.58.58,0,0,0,.472.662l.336.058a.134.134,0,0,1,.082.1,2.577,2.577,0,0,0,.066.3.138.138,0,0,1-.032.126l-.282.2a.6.6,0,0,0-.238.376.574.574,0,0,0,.1.438l.326.454a.6.6,0,0,0,.376.238.574.574,0,0,0,.424-.092l.282-.2a.116.116,0,0,1,.074,0,.226.226,0,0,1,.054.02,2.987,2.987,0,0,0,.262.168.142.142,0,0,1,.066.11L9.13,6.6a.58.58,0,0,0,.472.672l.55.094a.58.58,0,0,0,.672-.472l.058-.336a.134.134,0,0,1,.1-.082,2.575,2.575,0,0,0,.3-.066.152.152,0,0,1,.126.032l.2.282a.6.6,0,0,0,.376.238.574.574,0,0,0,.434-.1l.454-.32a.582.582,0,0,0,.14-.8l-.2-.282a.134.134,0,0,1,.012-.126A2.3,2.3,0,0,0,12.993,5.055Zm-1.363-1.2a1.13,1.13,0,1,1-.918-1.307,1.13,1.13,0,0,1,.918,1.307Z" transform="translate(1107 20.044)" fill="#002341"/>
  </g>
</svg>
