<svg xmlns="http://www.w3.org/2000/svg" width="29.515" height="24" viewBox="0 0 29.515 24">
  <g id="Group_1553" data-name="Group 1553" transform="translate(6923 -17807)">
    <path id="Path_371" data-name="Path 371" d="M39.56,1.039,39.485.714c.437-.1.882-.183,1.325-.245L40.857.8C40.423.86,39.987.941,39.56,1.039Z" transform="translate(-6950.831 17806.67)" fill="#002341"/>
    <path id="Path_372" data-name="Path 372" d="M58.814.994c-.426-.1-.862-.173-1.3-.229l.044-.331c.447.058.893.137,1.327.235Z" transform="translate(-6963.539 17806.693)" fill="#002341"/>
    <path id="Path_373" data-name="Path 373" d="M48.552.35,48.536.016c.45-.021.906-.021,1.349,0l-.012.334C49.433.329,48.99.329,48.552.35Z" transform="translate(-6957.21 17807)" fill="#002341"/>
    <path id="Path_374" data-name="Path 374" d="M7.252,76.795c.231.385.482.763.745,1.124l.27-.2c-.257-.352-.5-.72-.73-1.1Z" transform="translate(-6928.111 17752.992)" fill="#002341"/>
    <path id="Path_375" data-name="Path 375" d="M3.267,68.7c.159.422.338.84.533,1.239l.3-.146c-.189-.391-.365-.8-.521-1.211Z" transform="translate(-6925.303 17758.658)" fill="#002341"/>
    <path id="Path_376" data-name="Path 376" d="M.826,60.035c.081.442.182.885.3,1.315l.322-.089c-.117-.421-.216-.854-.3-1.286Z" transform="translate(-6923.583 17764.729)" fill="#002341"/>
    <path id="Path_377" data-name="Path 377" d="M.334,51.082H0c0,.448.022.9.062,1.349l.332-.03C.354,51.962.334,51.519.334,51.082Z" transform="translate(-6923 17770.996)" fill="#002341"/>
    <path id="Path_378" data-name="Path 378" d="M.7,42.042.37,41.983c-.078.441-.138.89-.177,1.339l.332.028C.564,42.912.622,42.471.7,42.042Z" transform="translate(-6923.136 17777.408)" fill="#002341"/>
    <path id="Path_379" data-name="Path 379" d="M2.52,33.285l-.313-.116c-.157.424-.3.855-.414,1.284l.322.088C2.231,34.122,2.367,33.7,2.52,33.285Z" transform="translate(-6924.264 17783.619)" fill="#002341"/>
    <path id="Path_380" data-name="Path 380" d="M5.909,25.1l-.287-.17c-.229.384-.443.785-.638,1.19l.3.143C5.476,25.87,5.685,25.478,5.909,25.1Z" transform="translate(-6926.514 17789.428)" fill="#002341"/>
    <path id="Path_381" data-name="Path 381" d="M9.661,18.59l.27.2c.257-.355.533-.7.821-1.033l-.252-.219C10.206,17.871,9.923,18.227,9.661,18.59Z" transform="translate(-6929.81 17794.643)" fill="#002341"/>
    <path id="Path_382" data-name="Path 382" d="M16.668,11.207c-.348.278-.689.578-1.013.888l.231.242c.317-.305.651-.6.991-.87Z" transform="translate(-6934.035 17799.1)" fill="#002341"/>
    <path id="Path_383" data-name="Path 383" d="M83.146,11.893c-.323-.308-.666-.6-1.017-.885l-.209.262c.346.273.68.564,1,.865Z" transform="translate(-6980.741 17799.24)" fill="#002341"/>
    <path id="Path_384" data-name="Path 384" d="M24.093,6.44l-.159-.292c-.391.211-.779.445-1.156.7l.185.276C23.331,6.876,23.711,6.648,24.093,6.44Z" transform="translate(-6939.055 17802.666)" fill="#002341"/>
    <path id="Path_385" data-name="Path 385" d="M75.771,6.682c-.374-.245-.763-.477-1.161-.689l-.156.294c.387.207.769.434,1.135.674Z" transform="translate(-6975.479 17802.775)" fill="#002341"/>
    <path id="Path_386" data-name="Path 386" d="M32.173,2.843l-.1-.316c-.429.141-.854.3-1.261.478l.132.306C31.338,3.139,31.754,2.983,32.173,2.843Z" transform="translate(-6944.715 17805.219)" fill="#002341"/>
    <path id="Path_387" data-name="Path 387" d="M67.6,2.9c-.411-.173-.836-.332-1.266-.47l-.1.318c.42.134.836.29,1.237.46Z" transform="translate(-6969.682 17805.287)" fill="#002341"/>
    <path id="Path_388" data-name="Path 388" d="M88.8,17.485l-.8-.8.33-2.726-.366-.363L87.02,15.7l-.546-.545a.447.447,0,0,0-.18-.107l.184-.91-.293-.293-.436,1.02-1.02.435.292.293.911-.184a.461.461,0,0,0,.107.18l.546.546-2.109.945.362.365,2.729-.328.8.8a.862.862,0,0,0,.553.256.142.142,0,0,0,.1-.037.133.133,0,0,0,.038-.1A.87.87,0,0,0,88.8,17.485Z" transform="translate(-6982.544 17797.416)" fill="#002341"/>
    <path id="Path_389" data-name="Path 389" d="M27.759,15.112a9.77,9.77,0,1,0,9.77,9.77A9.78,9.78,0,0,0,27.759,15.112Zm7.964,11.362a.986.986,0,0,1,.292.524A8.521,8.521,0,0,1,23.7,32.373c.012-.053.024-.107.036-.164.072-.347.609-.514.839-.744s.671-.361.81-.655c.091-.193-.038-.44.04-.62.059-.135.283-.282.388-.388a2.344,2.344,0,0,0,.462-1.311H25.088c-.374,0-.3-.442-.3-.717a1.016,1.016,0,0,0-.063-.463c-.082-.153-.347-.109-.488-.181a.941.941,0,0,1-.5-.647c-.032-.181-.025-.313-.253-.3s-.432.189-.64.189H20.325c0,.094-.053.4.032.441l.64.32c.318.159.411.558.567.868s.326.606.46.92a3.507,3.507,0,0,0,.588,1.131c.127.131.374.1.428.285a1.5,1.5,0,0,1-.054.728c-.058.248-.13.492-.195.738a8.535,8.535,0,0,1-3.418-5.407c.119-.009.238-.025.307-.025.23,0,.237-.017.4-.183.146-.146.241-.189.241-.391v-.7l.849.424c.012-.343.258-.387.54-.435.336-.055.557-.415.868-.415a1.612,1.612,0,0,1,.6.127.725.725,0,0,0,.417.049c.177-.055.135-.372.2-.514.088-.206.223-.5.46-.517.259-.021.594-.137.312-.419a4.727,4.727,0,0,1-.75-1.086c-.089-.164-.112-.422-.263-.535-.329-.247-.824.088-1.071.31-.139.125.079.414-.112.494a1.319,1.319,0,0,1-1.036.084c-.175-.084-.283-.288-.481-.325-.137-.025-.109-.063-.109-.217v-.777c0-.107.03-.065.128-.093.385-.11.158-.611.539-.617.442-.007.006-.76-.114-.914a.357.357,0,0,0-.207-.142,8.506,8.506,0,0,1,12.886-.511A13.281,13.281,0,0,1,32.7,20.382a5.054,5.054,0,0,1-.784.4,2.038,2.038,0,0,1-.883.06c-.073,0-.934-.012-.934.011,0,.255.128.775-.119.9a3.131,3.131,0,0,0-.859.493c-.066.066-.338.256-.26.334h0a.262.262,0,0,0-.133-.036,2.136,2.136,0,0,0-1.037.209c-.184.116-.134.292-.159.486a1.056,1.056,0,0,1-.252.608c-.187.192-.157.224-.157.536l.992-.11c.039-.005.282-.006.282-.05,0-.082-.046-.36.01-.416l.378-.378c.076-.076.215.142.278.2.115.115.228.139.105.26l-.347.348a2.419,2.419,0,0,0,.425-.01,1.35,1.35,0,0,1,.424-.84.582.582,0,0,1,.81-.035c.1.083.04.348.04.459a5.915,5.915,0,0,0,.018.849c.187,0,.35.043.493-.078.492-.414,1.136-.315,1.613-.771l.425.849-1.012.337c-.027.009-.254.1-.266.079a2.722,2.722,0,0,0-.264-.441c-.139-.179-.174-.024-.147.141a1.448,1.448,0,0,0,.4.723,3.7,3.7,0,0,1,.435.859c-.027-.522.733.308.85.424l.539-.539.267-.267c.072-.072-.008-.093-.064-.171-.3-.419.47-.3.7-.3a1.464,1.464,0,0,1,1.1.425C35.206,25.923,35.628,26.379,35.723,26.474Z" transform="translate(-6935.68 17796.35)" fill="#002341"/>
    <path id="Path_390" data-name="Path 390" d="M50.937,37.419l-.283.283c-.1.035-.257.042-.263.154-.007.138-.013.275-.021.413l.555-.277C50.985,37.962,50.937,37.5,50.937,37.419Z" transform="translate(-6958.504 17780.627)" fill="#002341"/>
    <path id="Path_391" data-name="Path 391" d="M54.767,32.684c.105,0,.29.059.29-.066V32.61a.131.131,0,0,0,.114.071c-.034.143-.071.286-.114.428l.388-.388c.087-.087.037-.3.037-.419V31.41c-.008.016-.022.042-.039.073-.005-.06-.008-.119-.014-.179l-.049.3a3.69,3.69,0,0,0-.322.748V31.41C54.972,31.581,54.315,32.684,54.767,32.684Z" transform="translate(-6961.492 17784.934)" fill="#002341"/>
    <path id="Path_392" data-name="Path 392" d="M53.633,51.9a1.472,1.472,0,0,0,.733-.415l-.944-.315c-.352-.117-.353-.156-.524-.5A2.227,2.227,0,0,0,52.464,50c-.152-.152-.646-.49-.646-.713,0-.339.066-.358-.252-.358H48.419a4.684,4.684,0,0,0-.694.858c-.336.559.084.839.452,1.241.393.43.241,1.16.976,1.289a4.992,4.992,0,0,0,.825.01c.032,0,.614-.082.558-.184a2.461,2.461,0,0,1,.05.553c.05.3.115.6.182.9a5.005,5.005,0,0,1,.2,1.07c0,.375.39.6.646.859.1.1.153.2.292.2h.72c.119,0-.1-1.473.274-1.66.108-.053.321.006.385-.117.044-.084,0-.186.04-.269.106-.2.355,0,.379-.34a1.8,1.8,0,0,0-.221-1.049C53.249,52.031,53.321,51.949,53.633,51.9Z" transform="translate(-6956.552 17772.508)" fill="#002341"/>
    <path id="Path_393" data-name="Path 393" d="M37.932,26.738a5.348,5.348,0,0,0-.7-.589,1.491,1.491,0,0,0-1-.255c-.193,0-.39-.013-.582,0-.083.007-.051.1-.075.161-.145.371-.747.816-1.042,1.111.408,0,.635.846.79,1.156a1.239,1.239,0,0,1,.06.586c0,.3-.026.356.184.566s.191.292.4.086l.62-.62c.136-.136.074-.357.074-.542,0-.273-.1-.382.179-.382a.806.806,0,0,0,.581-.128c.129-.112.23-.252.408-.287.2-.039.614-.11.531-.435C38.328,27.036,38.033,26.838,37.932,26.738Z" transform="translate(-6947.345 17788.752)" fill="#002341"/>
  </g>
</svg>
