<svg xmlns="http://www.w3.org/2000/svg" width="97.297" height="100" viewBox="0 0 97.297 100">
  <g id="Group_1" data-name="Group 1" transform="translate(-852.352 -354)">
    <g id="noun_User_26020" transform="translate(851 354)">
      <path id="Path_96" data-name="Path 96" d="M96.772,90.107C94,83.878,80.481,79.757,71.5,75.887s-7.756-6.216-8.079-9.425c-.039-.393-.067-.807-.085-1.232a21.348,21.348,0,0,0,6.382-8.33s.086-.214.11-.279c.344-.914.65-3.281.912-4.254,2.06-.406,3.259-2.592,3.718-4.614a9.108,9.108,0,0,0,1.205-5.124c-.284-2.946-1.5-4.308-2.87-4.877,0-.141,0-.273,0-.4a51.984,51.984,0,0,0-.324-11.492c-.149-.389.311-.755.814-1.174-.919-.741-1.235-3.314-.183-5.565l-1.79-.527,1.264-.842-1.158-.632,1.158-.21-1.79-1.053,1.158-.316c-2.232-2-3.166-2.99-3.264-5.581L67.31,10.9c-.247-1.893-.509-1.505-1.053-3.58l-.632,1.053C61.4,1.846,57.174,1.984,51.526,0c1.451,1.734.974,2.489-.211,2.316C42.961-.475,42.473,6.484,37.205,5.58l.21,2.106L35.73,7.054q.157.579.316,1.158L33.94,8q.421.843.842,1.685l-2-.526.737,1.895-2.843-.527L33.2,12.74l-2-.1,1.264,1.475c-6.458,1.16-6.147,14.209-5.148,22.423,0,.236-.008.471-.008.707,0,.152,0,.308,0,.469-1.41.544-2.682,1.9-2.973,4.919a9.111,9.111,0,0,0,1.2,5.124c.466,2.056,1.7,4.284,3.826,4.634.264.977.574,3.067.922,3.989.023.06.046.119.07.178l.032.079a22.289,22.289,0,0,0,6.565,8.5c-.018.459-.046.907-.089,1.329-.323,3.209.622,5.555-8.362,9.425s-22.5,7.992-25.274,14.22S1.57,100,1.57,100H98.426S99.543,96.335,96.772,90.107Z" fill="#cb385b"/>
    </g>
  </g>
</svg>
